<svg width="389" height="128" xmlns="http://www.w3.org/2000/svg" xmlns:xlink="http://www.w3.org/1999/xlink" xml:space="preserve" overflow="hidden"><g transform="translate(-875 -19)"><path d="M0 0-0.00493336 0C0.0142197 0.82271-0.466928 1.60914-1.27048 1.94113-2.08333 2.27079-2.98265 2.04212-3.54099 1.44083L-3.54592 1.44547-9.30431-5.47196-7.23578-12.6474-0.736521-8.97435Z" fill="#AAD7AD" transform="matrix(1.00166 0 0 -1 1197.77 46.4222)"/><path d="M0 0 0 0.00232158C0.591712 0.572559 0.813423 1.46956 0.471571 2.27544 0.135232 3.0787-0.654105 3.54795-1.48117 3.52619L-1.48117 3.53112-10.439 2.70609-14.0566-3.82683-6.85969-5.82107Z" fill="#518EA8" transform="matrix(1.00166 0 0 -1 1213.73 64.2411)"/><path d="M0 0 0 0.00493336C0.82271-0.0142197 1.60653 0.461994 1.93852 1.2699 2.2705 2.08072 2.03515 2.97307 1.43851 3.53838L1.44779 3.53838-5.47486 9.29908-12.6572 7.23317-8.97697 0.733329Z" fill="#1EBAB3" transform="matrix(1.00166 0 0 -1 1212.4 88.1069)"/><path d="M0 0 0.00493336 0.00696474C0.572559-0.592293 1.46695-0.810811 2.2705-0.471571 3.0787-0.13262 3.55027 0.66107 3.5259 1.48117L3.53112 1.48117 2.70841 10.4465-3.83409 14.0543-5.08455 5.98677Z" fill="#0B7F7A" transform="matrix(1.00166 0 0 -1 1194.56 104.045)"/><path d="M0 0 0 0.00696474C-0.567626-0.592293-1.46259-0.810811-2.26557-0.471571-3.07406-0.13262-3.55027 0.66107-3.51632 1.48117L-3.53112 1.48117-2.70348 10.4465 3.83409 14.0543 5.08049 5.98677Z" fill="#1EBAB3" transform="matrix(1.00166 0 0 -1 1174.07 104.045)"/><path d="M0 0 0.00493336-0.00493336C-0.586779-0.572559-0.807909-1.46521-0.471571-2.27544-0.129718-3.07899 0.659038-3.54795 1.48146-3.52184L1.48146-3.5288 10.4488-2.70609 14.0569 3.82654 6.86491 5.8231Z" fill="#AAD7AD" transform="matrix(1.00166 0 0 -1 1154.68 84.9005)"/><path d="M0 0 0-0.00725493C-0.822129 0.0121883-1.61611-0.468959-1.94316-1.27716-2.27021-2.08768-2.04937-2.97772-1.44286-3.5407L-1.4475-3.5407 5.47022-9.30141 12.6477-7.23317 8.97203-0.735941Z" fill="#0FBDCC" transform="matrix(1.00166 0 0 -1 1156.02 61.0297)"/><path d="M0 0-0.00464316-0.00493336C-0.572559 0.591712-1.47188 0.810521-2.27544 0.471571-3.0787 0.136973-3.55463-0.659038-3.52619-1.48175L-3.53112-1.48175-2.70841-10.4465 3.8248-14.0595 5.82542-6.86491Z" fill="#1EBAB3" transform="matrix(1.00166 0 0 -1 1173.87 45.0943)"/><path d="M0 0C-0.183405 0.175569-0.447775 0.190079-0.649752 0.0577493L-13.1143-7.25464-15.2116-10.9201C-14.9809-11.0284-14.7551-11.1297-14.543-11.2521L-11.7338-9.34697C-11.4257-9.109-10.9831-9.13541-10.7135-9.40965L-9.40501-10.7112C-9.13541-10.9851-9.10697-11.4254-9.35248-11.7309L-11.2524-14.538C-11.132-14.7499-11.0263-14.9782-10.9251-15.204L-7.25987-13.1071-7.25987-13.1114 0.0528159-0.64685C0.187177-0.444873 0.172958-0.173248 0 0" fill="#646568" transform="matrix(1.00166 0 0 -1 1203.24 55.5047)"/><path d="M0 0C0.0769023 0.182824 0.26466 0.348817 0.553116 0.312252L27.8877-9.13541 28.7629-14.7908 20.0701-10.634 0.139295-0.598967C-0.0722591-0.416433-0.0722591-0.168605 0 0" fill="#646568" transform="matrix(1.00166 0 0 -1 1152.68 103.53)"/><path d="M0 0C-0.0769023 0.182824-0.26437 0.348817-0.553116 0.312252L-27.883-9.13541-28.7632-14.7908-20.0701-10.634-0.139295-0.598967C0.0769023-0.416433 0.0769023-0.168605 0 0" fill="#646568" transform="matrix(1.00166 0 0 -1 1215.74 103.53)"/><path d="M0 0-13.9846 3.6443-18.0596 2.52791C-17.9731 2.29459-17.8814 2.06388-17.8187 1.82563L-14.4901 1.18575C-14.1048 1.14048-13.8119 0.810811-13.8119 0.421076L-13.8119-1.42168C-13.8119-1.81141-14.1048-2.14079-14.4901-2.18635L-17.8187-2.8213C-17.8814-3.05955-17.9731-3.29316-18.0546-3.52387L-13.9846-4.63242-13.9846-4.63735 0-0.993636C0.23564-0.945463 0.413531-0.747839 0.413531-0.497979 0.413531-0.25015 0.23564-0.048463 0 0" fill="#646568" transform="matrix(1.00166 0 0 -1 1210.7 74.0042)"/><path d="M0 0-7.31239 12.4669-10.9732 14.5621C-11.0838 14.3337-11.1848 14.1027-11.3052 13.8912L-9.40036 11.0887C-9.1595 10.7808-9.18823 10.3409-9.45782 10.0664L-10.7663 8.76309C-11.0406 8.48624-11.4735 8.46448-11.7864 8.70505L-14.5958 10.6079C-14.8027 10.4828-15.0337 10.3818-15.2499 10.2782L-13.1671 6.61244-13.1671 6.60983-0.702568-0.701987C-0.500591-0.834317-0.23593-0.820388-0.0528159-0.644238 0.115208-0.468959 0.134361-0.199366 0 0" fill="#646568" transform="matrix(1.00166 0 0 -1 1203.29 92.8551)"/><path d="M0 0-0.634952-3.32421C-0.678481-3.71395-1.01018-4.00501-1.39991-4.00501L-3.24238-4.00501C-3.62718-4.00501-3.95423-3.71395-4.00269-3.32421L-4.64258 0C-4.88779 0.0699376-5.10892 0.156707-5.34456 0.242895L-6.45573-3.82915-6.4656-3.82915-2.82362-34.7619C-2.76587-35.0004-2.56912-35.1783-2.3239-35.1783-2.06853-35.1783-1.87148-35.0004-1.82302-34.7619L1.81867-3.82915 0.707501 0.242895C0.471281 0.158448 0.245217 0.0699376 0 0" fill="#646568" transform="matrix(1.00166 0 0 -1 1186.53 83.1399)"/><path d="M0 0-2.80505-1.9005C-3.11788-2.14601-3.55027-2.11931-3.82944-1.84246L-5.13301-0.538897C-5.40754-0.26466-5.42669 0.175279-5.19134 0.480857L-3.28155 3.28329C-3.41098 3.49514-3.50762 3.72817-3.61296 3.9493L-7.27902 1.85668-7.28395 1.86162-14.5958-10.6056C-14.7258-10.8075-14.7116-11.0745-14.5331-11.2498-14.3555-11.4277-14.0908-11.4399-13.8888-11.3075L-1.42429-3.99573 0.663391-0.329664C0.447194-0.223742 0.216197-0.125075 0 0" fill="#646568" transform="matrix(1.00166 0 0 -1 1179.74 82.2495)"/><path d="M0 0-3.32421 0.639305C-3.71395 0.680223-4.00269 1.00989-4.00269 1.39933L-4.00269 3.24238C-4.00269 3.63211-3.71395 3.96148-3.32421 4.00705L0 4.642C0.0673258 4.88025 0.163381 5.1156 0.240283 5.34689L-3.82915 6.45573-3.82915 6.46066-17.819 2.81375C-18.05 2.76587-18.2282 2.56854-18.2282 2.32303-18.2282 2.07085-18.05 1.87351-17.819 1.82302L-3.82915-1.81896 0.240283-0.707501C0.163381-0.471861 0.0673258-0.243476 0 0" fill="#646568" transform="matrix(1.00166 0 0 -1 1175.56 76.8255)"/><path d="M0 0C0.105342 0.226064 0.206911 0.454159 0.327343 0.668615L-1.57809 3.4754C-1.81867 3.78098-1.78965 4.22121-1.51077 4.49806L-0.211554 5.79669C0.0670356 6.07093 0.5003 6.09734 0.803266 5.85938L3.61296 3.95191C3.82422 4.07698 4.05028 4.17797 4.27171 4.27896L2.18374 7.94706 2.18867 7.95199-10.2759 15.2644C-10.4776 15.3964-10.7425 15.3819-10.9201 15.2063-11.0986 15.0261-11.1079 14.7591-10.9828 14.5595L-3.67071 2.09726Z" fill="#646568" transform="matrix(1.00166 0 0 -1 1176.12 70.7113)"/><path d="M0 0 0.634952 3.32914C0.688348 3.71859 1.01047 4.00966 1.4002 4.00966L3.24267 4.00966C3.6324 4.00966 3.9641 3.71859 4.00269 3.32914L4.64258 0C4.88779-0.0650042 5.11386-0.153805 5.35008-0.240574L6.45631 3.83409 6.46124 3.83409 2.81956 17.8187C2.76674 18.0546 2.56912 18.2348 2.3239 18.2348 2.06911 18.2348 1.87148 18.0546 1.82331 17.8187L-1.82302 3.83409-0.711564-0.240574C-0.466347-0.153805-0.254503-0.0650042 0 0" fill="#646568" transform="matrix(1.00166 0 0 -1 1181.88 65.8717)"/><path d="M0 0-2.66517 0-2.66517 0.865949 3.59845 0.865949 3.59845 0 0.952138 0 0.952138-7.80312 0-7.80312Z" fill="#231F20" transform="matrix(1.00166 0 0 -1 908.427 70.5767)"/><path d="M0 0C0 0.760027-0.120142 1.30386-0.360425 1.62365-0.605932 1.94577-1.00031 2.1048-1.54878 2.1048-2.13092 2.1048-2.55403 1.93881-2.82855 1.59957-3.10743 1.26062-3.24673 0.728976-3.25659 0ZM-3.60309-2.87179C-3.99747-2.37643-4.19945-1.59202-4.19945-0.526708-4.19945 0.637273-3.98325 1.49858-3.55956 2.05663-3.13152 2.61468-2.46291 2.89588-1.54878 2.89588-0.716788 2.89588-0.0960553 2.6556 0.322699 2.17938 0.726654 1.69562 0.942851 0.95533 0.942851-0.0383061L0.890035-0.75016-3.24673-0.75016C-3.24673-1.26497-3.18927-1.67647-3.07377-1.96493-2.96292-2.25628-2.76587-2.47045-2.49657-2.59988-2.22697-2.72524-1.8474-2.79286-1.36596-2.79286-1.12045-2.79286-0.841863-2.78764-0.52903-2.77342-0.211554-2.76123 0.0818357-2.74207 0.341852-2.71567L0.702568-2.68171 0.726654-3.41765C-0.201977-3.55782-0.966938-3.62021-1.5778-3.62021-2.52994-3.62021-3.20407-3.37238-3.60309-2.87179" fill="#231F20" transform="matrix(1.00166 0 0 -1 915.756 74.887)"/><path d="M0 0C-0.355782 0.218809-0.625085 0.567626-0.77947 1.03688-0.937628 1.50583-1.0244 2.13846-1.0244 2.92519-1.0244 3.91592-0.846215 4.71252-0.519163 5.30655-0.182824 5.89826 0.466928 6.19629 1.42429 6.19629 1.67473 6.19629 1.93417 6.18178 2.19854 6.15276 2.4632 6.131 2.83378 6.07586 3.29084 5.9917L3.25747 5.22936C2.59814 5.30655 2.08826 5.34253 1.74205 5.34253 1.26555 5.34253 0.895259 5.26563 0.645109 5.12372 0.389735 4.97688 0.206911 4.73399 0.105922 4.38053 0 4.03868-0.0528159 3.54331-0.0528159 2.9011-0.0528159 2.28763-0.00435296 1.81635 0.0966357 1.47449 0.197624 1.13786 0.375515 0.892647 0.645109 0.735941 0.904545 0.582426 1.28964 0.505524 1.78965 0.505524L3.26675 0.61812 3.30506-0.156126C2.50208-0.273946 1.90544-0.334307 1.49655-0.334307 0.871173-0.334307 0.375515-0.22113 0 0" fill="#231F20" transform="matrix(1.00166 0 0 -1 918.797 78.1729)"/><path d="M0 0 0.942851 0 0.942851-3.08364C1.30879-2.91532 1.65035-2.79286 1.96319-2.71567 2.27544-2.64109 2.5932-2.60249 2.92519-2.60249 3.46409-2.60249 3.87733-2.69622 4.18058-2.89617 4.47891-3.09554 4.68553-3.41533 4.80596-3.85585 4.92175-4.30044 4.98849-4.90695 4.98849-5.68381L4.98849-8.99119 4.05087-8.99119 4.05087-5.71312C4.05087-5.09209 4.01227-4.62778 3.94494-4.31291 3.87297-4.00008 3.73803-3.77634 3.5407-3.64633 3.34336-3.50936 3.05026-3.44203 2.66982-3.44203 2.1936-3.44203 1.69853-3.53809 1.18372-3.73049L0.942851-3.81726 0.942851-8.99119 0-8.99119Z" fill="#231F20" transform="matrix(1.00166 0 0 -1 923.384 69.3883)"/><path d="M0 0 0.923698 0 0.923698-0.435296C1.30357-0.230997 1.64484-0.0818357 1.95767 0 2.2705 0.0818357 2.60249 0.127397 2.93912 0.127397 3.47773 0.127397 3.89155 0.0266982 4.18029-0.172958 4.47397-0.375225 4.68553-0.695023 4.80103-1.13293 4.92117-1.57055 4.98878-2.17677 4.98878-2.95363L4.98878-6.2613 4.06015-6.2613 4.06015-2.98294C4.06015-2.38629 4.02155-1.93417 3.95423-1.61379 3.88197-1.29399 3.74732-1.06793 3.56972-0.923698 3.39125-0.784404 3.12194-0.711854 2.76587-0.711854 2.48235-0.711854 2.19389-0.747839 1.90021-0.820388 1.60218-0.887714 1.36103-0.971581 1.17849-1.0656L0.937918-1.17646 0.937918-6.2613 0-6.2613Z" fill="#231F20" transform="matrix(1.00166 0 0 -1 930.001 72.1185)"/><path d="M61.5094 74.8434 62.438 74.8434 62.438 68.5771 61.5094 68.5771ZM61.5094 77.3498 62.438 77.3498 62.438 76.2601 61.5094 76.2601Z" fill="#231F20" transform="matrix(1.00166 0 0 -1 875 146.962)"/><path d="M0 0C-0.365649 0.218809-0.630309 0.567626-0.788756 1.03688-0.942851 1.50583-1.02933 2.13846-1.02933 2.92519-1.02933 3.91592-0.856372 4.71252-0.52903 5.30655-0.192111 5.89826 0.457061 6.19629 1.41471 6.19629 1.66951 6.19629 1.92459 6.18178 2.19418 6.15276 2.46291 6.131 2.82391 6.07586 3.28561 5.9917L3.24702 5.22936C2.58363 5.30655 2.0781 5.34253 1.72696 5.34253 1.25539 5.34253 0.890035 5.26563 0.630599 5.12372 0.380159 4.97688 0.197624 4.73399 0.0963455 4.38053-0.0145099 4.03868-0.0670356 3.54331-0.0670356 2.9011-0.0670356 2.28763-0.0145099 1.81635 0.0864788 1.47449 0.187468 1.13786 0.365939 0.892647 0.630599 0.735941 0.894969 0.582426 1.27484 0.505524 1.78036 0.505524L3.25718 0.61812 3.29055-0.156126C2.49686-0.273946 1.89064-0.334307 1.49161-0.334307 0.865659-0.334307 0.365939-0.22113 0 0" fill="#231F20" transform="matrix(1.00166 0 0 -1 939.912 78.1729)"/><path d="M0 0 0.288746 0.0983769 0.288746 2.16458-1.56823 1.98901C-1.94316 1.95564-2.21275 1.8474-2.38629 1.66457-2.54967 1.47943-2.63122 1.21477-2.63122 0.861016-2.63122 0.0934436-2.31374-0.288746-1.67879-0.288746-1.12045-0.288746-0.562693-0.195013 0 0M-3.15096-0.587069C-3.44435-0.26466-3.59845 0.206911-3.59845 0.812843-3.59845 1.41674-3.44435 1.86162-3.13645 2.1553-2.83349 2.44375-2.34276 2.62396-1.67879 2.69158L0.288746 2.87934 0.288746 3.42027C0.288746 4.21192-0.0574591 4.60833-0.745517 4.60833-1.41413 4.60833-2.23684 4.55581-3.209 4.44727L-3.24702 5.16174C-2.35205 5.34427-1.5395 5.43104-0.803557 5.43104-0.0914122 5.43104 0.423398 5.27231 0.745807 4.9528 1.06328 4.6301 1.22695 4.12022 1.22695 3.42027L1.22695 0.211844C1.25568-0.0983769 1.49132-0.281201 1.95332-0.339241L1.91501-1.0804C1.25568-1.0804 0.755384-0.9118 0.423398-0.577493-0.321829-0.9118-1.07286-1.0804-1.83289-1.0804-2.41038-1.0804-2.84335-0.916734-3.15096-0.587069" fill="#231F20" transform="matrix(1.00166 0 0 -1 947.695 77.427)"/><path d="M75.6045 77.5759 76.543 77.5759 76.543 68.5821 75.6045 68.5821Z" fill="#231F20" transform="matrix(1.00166 0 0 -1 875 146.962)"/><path d="M0 0 0.29368 0.0983769 0.29368 2.16458-1.56794 1.98901C-1.94809 1.95564-2.21769 1.8474-2.38629 1.66457-2.54967 1.47943-2.63586 1.21477-2.63586 0.861016-2.63586 0.0934436-2.31374-0.288746-1.68373-0.288746-1.12045-0.288746-0.55805-0.195013 0 0M-3.14632-0.587069C-3.44435-0.26466-3.59351 0.206911-3.59351 0.812843-3.59351 1.41674-3.44435 1.86162-3.13645 2.1553-2.83842 2.44375-2.35205 2.62396-1.68373 2.69158L0.29368 2.87934 0.29368 3.42027C0.29368 4.21192-0.0574591 4.60833-0.740874 4.60833-1.41413 4.60833-2.23684 4.55581-3.21307 4.44727L-3.24702 5.16174C-2.35205 5.34427-1.5395 5.43104-0.803557 5.43104-0.0960553 5.43104 0.423688 5.27231 0.745807 4.9528 1.05864 4.6301 1.22231 4.12022 1.22231 3.42027L1.22231 0.211844C1.25568-0.0983769 1.4919-0.281201 1.95332-0.339241L1.91501-1.0804C1.25568-1.0804 0.755384-0.9118 0.423688-0.577493-0.317186-0.9118-1.06793-1.0804-1.83289-1.0804-2.40545-1.0804-2.84277-0.916734-3.14632-0.587069" fill="#231F20" transform="matrix(1.00166 0 0 -1 959.264 77.427)"/><path d="M0 0 0.928632 0 0.928632-0.435296C1.30879-0.230997 1.64542-0.0818357 1.96319 0 2.27544 0.0818357 2.60249 0.127397 2.94434 0.127397 3.48324 0.127397 3.89213 0.0266982 4.18523-0.172958 4.47891-0.375225 4.68553-0.695023 4.80596-1.13293 4.92639-1.57055 4.98849-2.17677 4.98849-2.95363L4.98849-6.2613 4.06015-6.2613 4.06015-2.98294C4.06015-2.38629 4.02155-1.93417 3.95481-1.61379 3.88226-1.29399 3.75719-1.06793 3.56943-0.923698 3.39183-0.784404 3.1173-0.711854 2.77574-0.711854 2.48699-0.711854 2.19854-0.747839 1.9005-0.820388 1.60218-0.887714 1.36132-0.971581 1.17878-1.0656L0.942851-1.17646 0.942851-6.2613 0-6.2613Z" fill="#231F20" transform="matrix(1.00166 0 0 -1 962.223 72.1185)"/><path d="M0 0C0.284103 0.0725493 0.524387 0.151773 0.726654 0.247829L0.976514 0.358684 0.976514 4.60398C0.438198 4.70497-0.0383061 4.75314-0.437908 4.75314-1.09695 4.75314-1.55836 4.56306-1.82302 4.17826-2.08333 3.7981-2.21769 3.16083-2.21769 2.27805-2.21769 1.46753-2.11148 0.863627-1.89528 0.476504-1.68373 0.0893808-1.31314-0.105342-0.789047-0.105342-0.54383-0.105342-0.283813-0.0693572 0 0M-2.66982-0.172958C-3.01109 0.341852-3.18956 1.13061-3.18956 2.20086-3.18956 3.39415-2.98265 4.25516-2.55896 4.77984-2.14572 5.30887-1.46753 5.57092-0.51452 5.57092-0.0383061 5.57092 0.457351 5.51578 0.976514 5.40754L0.976514 8.1737 1.90486 8.1737 1.90486-0.817776 0.976514-0.817776 0.976514-0.394088C0.332276-0.760027-0.312543-0.945173-0.966938-0.945173-1.76034-0.945173-2.32825-0.687768-2.66982-0.172958" fill="#231F20" transform="matrix(1.00166 0 0 -1 971.75 77.562)"/><path d="M0 0 1.00553 0 2.99252-7.81966 3.69973-7.81966 5.69135 0 6.69195 0 4.42116-8.66907 2.2705-8.66907Z" fill="#231F20" transform="matrix(1.00166 0 0 -1 977.383 69.7107)"/><path d="M0 0C0.245217 0.156707 0.408598 0.399602 0.504653 0.738552 0.601289 1.07547 0.649172 1.5543 0.649172 2.17242 0.649172 2.82188 0.601289 3.32653 0.500591 3.67564 0.403955 4.02417 0.225774 4.27432-0.0145099 4.42377-0.25015 4.57728-0.601579 4.64983-1.054 4.64983-1.50583 4.64983-1.85233 4.57728-2.10248 4.42377-2.34799 4.27432-2.52094 4.02417-2.62687 3.67564-2.72757 3.32653-2.78096 2.82188-2.78096 2.17242-2.78096 1.55865-2.73772 1.08737-2.64109 0.745807-2.54503 0.401923-2.37207 0.156707-2.12657 0-1.87642-0.156126-1.52528-0.233028-1.054-0.233028-0.601579-0.233028-0.245507-0.156126 0 0M-2.6556-0.716788C-3.05055-0.495657-3.32943-0.151193-3.49775 0.317766-3.66113 0.786725-3.7479 1.40252-3.7479 2.17242-3.7479 2.9635-3.66113 3.60338-3.48295 4.08192-3.30999 4.56306-3.02647 4.91681-2.63151 5.13301-2.24206 5.35443-1.71739 5.46761-1.06328 5.46761-0.404245 5.46761 0.114918 5.35443 0.504653 5.12808 0.894388 4.90463 1.17385 4.55146 1.35667 4.07495 1.52963 3.59845 1.61118 2.9635 1.61118 2.17242 1.61118 1.40252 1.53427 0.786725 1.36132 0.317766 1.19793-0.151193 0.918475-0.495657 0.533963-0.716788 0.144228-0.937918-0.394668-1.04384-1.06328-1.04384-1.72725-1.04384-2.26122-0.937918-2.6556-0.716788" fill="#231F20" transform="matrix(1.00166 0 0 -1 988.239 77.4587)"/><path d="M0 0C-0.370292 0.218809-0.630599 0.567626-0.784113 1.03688-0.947785 1.50583-1.0244 2.13846-1.0244 2.92519-1.0244 3.91592-0.861016 4.71252-0.52932 5.30655-0.197624 5.89826 0.456771 6.19629 1.41442 6.19629 1.66922 6.19629 1.92894 6.18178 2.19389 6.15276 2.4632 6.131 2.82362 6.07586 3.2859 5.9917L3.24673 5.22936C2.58334 5.30655 2.08304 5.34253 1.72725 5.34253 1.26033 5.34253 0.889745 5.26563 0.634952 5.12372 0.370582 4.97688 0.197334 4.73399 0.091122 4.38053-0.00957651 4.03868-0.0580395 3.54331-0.0580395 2.9011-0.0580395 2.28763-0.00957651 1.81635 0.0864788 1.47449 0.192111 1.13786 0.370582 0.892647 0.634952 0.735941 0.899902 0.582426 1.28441 0.505524 1.77485 0.505524L3.26153 0.61812 3.29519-0.156126C2.49686-0.273946 1.89528-0.334307 1.49132-0.334307 0.865659-0.334307 0.370582-0.22113 0 0" fill="#231F20" transform="matrix(1.00166 0 0 -1 992.027 78.1729)"/><path d="M0 0 0.297743 0.0983769 0.297743 2.16458-1.5543 1.98901C-1.93417 1.95564-2.20376 1.8474-2.37701 1.66457-2.54068 1.47943-2.61758 1.21477-2.61758 0.861016-2.61758 0.0934436-2.30939-0.288746-1.66951-0.288746-1.11146-0.288746-0.549053-0.195013 0 0M-3.13732-0.587069C-3.43507-0.26466-3.58916 0.206911-3.58916 0.812843-3.58916 1.41674-3.43013 1.86162-3.12717 2.1553-2.8242 2.44375-2.33812 2.62396-1.66951 2.69158L0.297743 2.87934 0.297743 3.42027C0.297743 4.21192-0.048463 4.60833-0.731588 4.60833-1.40514 4.60833-2.23249 4.55581-3.19478 4.44727L-3.23338 5.16174C-2.33812 5.34427-1.52528 5.43104-0.79427 5.43104-0.0818357 5.43104 0.432684 5.27231 0.760027 4.9528 1.06793 4.6301 1.23595 4.12022 1.23595 3.42027L1.23595 0.211844C1.26004-0.0983769 1.50525-0.281201 1.9626-0.339241L1.92894-1.0804C1.26468-1.0804 0.769313-0.9118 0.432684-0.577493-0.30819-0.9118-1.05864-1.0804-1.82389-1.0804-2.39616-1.0804-2.83842-0.916734-3.13732-0.587069" fill="#231F20" transform="matrix(1.00166 0 0 -1 999.8 77.427)"/><path d="M0 0C-0.240864 0.139295-0.404535 0.36797-0.51481 0.702278-0.615799 1.02933-0.669195 1.49103-0.669195 2.08275L-0.669195 5.37823-1.55401 5.37823-1.55401 6.19368-0.669195 6.19368-0.669195 8.11073 0.259727 8.11073 0.259727 6.19368 2.25135 6.19368 2.25135 5.37823 0.259727 5.37823 0.259727 2.38629C0.259727 1.91704 0.27888 1.56852 0.307899 1.33984 0.341562 1.10884 0.423108 0.932985 0.553116 0.810231 0.682834 0.695023 0.885392 0.630018 1.16398 0.630018L2.27544 0.709242 2.33812-0.067616C1.74641-0.163671 1.29863-0.209523 1.00031-0.209523 0.572559-0.209523 0.245507-0.139295 0 0" fill="#231F20" transform="matrix(1.00166 0 0 -1 1003.77 78.3121)"/><path d="M131.832 74.8434 132.756 74.8434 132.756 68.5771 131.832 68.5771ZM131.832 77.3498 132.756 77.3498 132.756 76.2601 131.832 76.2601Z" fill="#231F20" transform="matrix(1.00166 0 0 -1 875 146.962)"/><path d="M0 0C0.245217 0.156707 0.413821 0.399602 0.51452 0.738552 0.610575 1.07547 0.659038 1.5543 0.659038 2.17242 0.659038 2.82188 0.605932 3.32653 0.504943 3.67564 0.399021 4.02417 0.230997 4.27432-0.00986671 4.42377-0.245507 4.57728-0.596646 4.64983-1.04877 4.64983-1.50583 4.64983-1.8474 4.57728-2.09261 4.42377-2.33812 4.27432-2.5163 4.02417-2.62164 3.67564-2.72757 3.32653-2.77574 2.82188-2.77574 2.17242-2.77574 1.55865-2.72757 1.08737-2.63644 0.745807-2.53545 0.401923-2.36714 0.156707-2.1167 0-1.87642-0.156126-1.51541-0.233028-1.04877-0.233028-0.587069-0.233028-0.240283-0.156126 0 0M-2.65095-0.716788C-3.04533-0.495657-3.32421-0.151193-3.49253 0.317766-3.66113 0.786725-3.74268 1.40252-3.74268 2.17242-3.74268 2.9635-3.65126 3.60338-3.47831 4.08192-3.30506 4.56306-3.0166 4.91681-2.62687 5.13301-2.23713 5.35443-1.71274 5.46761-1.06299 5.46761-0.399602 5.46761 0.120142 5.35443 0.51452 5.12808 0.899612 4.90463 1.18313 4.55146 1.35667 4.07495 1.53456 3.59845 1.62104 2.9635 1.62104 2.17242 1.62104 1.40252 1.53456 0.786725 1.37089 0.317766 1.20258-0.151193 0.928341-0.495657 0.538606-0.716788 0.149452-0.937918-0.384802-1.04384-1.06299-1.04384-1.73219-1.04384-2.26122-0.937918-2.65095-0.716788" fill="#231F20" transform="matrix(1.00166 0 0 -1 1013.06 77.4587)"/><path d="M0 0 0.932985 0 0.932985-0.435296C1.30821-0.230997 1.6402-0.0818357 1.9626 0 2.27544 0.0818357 2.60249 0.127397 2.9487 0.127397 3.48266 0.127397 3.89648 0.0266982 4.18987-0.172958 4.48297-0.375225 4.68524-0.695023 4.80596-1.13293 4.93045-1.57055 4.99314-2.17677 4.99314-2.95363L4.99314-6.2613 4.05986-6.2613 4.05986-2.98294C4.05986-2.38629 4.02649-1.93417 3.94901-1.61379 3.88226-1.29399 3.7569-1.06793 3.57407-0.923698 3.39125-0.784404 3.12223-0.711854 2.77516-0.711854 2.48699-0.711854 2.19825-0.747839 1.89992-0.820388 1.60624-0.887714 1.36074-0.971581 1.18313-1.0656L0.942851-1.17646 0.942851-6.2613 0-6.2613Z" fill="#231F20" transform="matrix(1.00166 0 0 -1 1016.08 72.1185)"/><path d="M0 0 0.288746 0.0983769 0.288746 2.16458-1.56358 1.98901C-1.93852 1.95564-2.21275 1.8474-2.38136 1.66457-2.54967 1.47943-2.63151 1.21477-2.63151 0.861016-2.63151 0.0934436-2.31868-0.288746-1.67879-0.288746-1.12074-0.288746-0.562402-0.195013 0 0M-3.14603-0.587069C-3.44929-0.26466-3.59787 0.206911-3.59787 0.812843-3.59787 1.41674-3.43971 1.86162-3.13645 2.1553-2.83784 2.44375-2.34741 2.62396-1.67879 2.69158L0.288746 2.87934 0.288746 3.42027C0.288746 4.21192-0.0528159 4.60833-0.740874 4.60833-1.41442 4.60833-2.24206 4.55581-3.20407 4.44727L-3.24731 5.16174C-2.34741 5.34427-1.5395 5.43104-0.803557 5.43104-0.091122 5.43104 0.428331 5.27231 0.750741 4.9528 1.06299 4.6301 1.22666 4.12022 1.22666 3.42027L1.22666 0.211844C1.25075-0.0983769 1.49597-0.281201 1.95825-0.339241L1.91966-1.0804C1.25568-1.0804 0.760027-0.9118 0.428331-0.577493-0.317186-0.9118-1.06822-1.0804-1.83753-1.0804-2.40545-1.0804-2.84277-0.916734-3.14603-0.587069" fill="#231F20" transform="matrix(1.00166 0 0 -1 1025.9 77.427)"/><path d="M153.682 77.5759 154.616 77.5759 154.616 68.5821 153.682 68.5821Z" fill="#231F20" transform="matrix(1.00166 0 0 -1 875 146.962)"/><path d="M0 0-2.66517 0-2.66517 0.865949 3.59845 0.865949 3.59845 0 0.942851 0 0.942851-7.80312 0-7.80312Z" fill="#231F20" transform="matrix(1.00166 0 0 -1 1036.2 70.5767)"/><path d="M0 0 0.928051 0 0.928051-0.853761C1.64484-0.355782 2.41009-0.0266982 3.21829 0.141907L3.21829-0.810231C2.89588-0.880459 2.5401-0.983769 2.15965-1.11842 1.77978-1.25801 1.47681-1.38511 1.24582-1.50351L0.942851-1.66718 0.942851-6.2613 0-6.2613Z" fill="#231F20" transform="matrix(1.00166 0 0 -1 1039.66 72.1185)"/><path d="M0 0 0.288746 0.0983769 0.288746 2.16458-1.56358 1.98901C-1.94316 1.95564-2.21769 1.8474-2.37614 1.66457-2.54967 1.47943-2.63122 1.21477-2.63122 0.861016-2.63122 0.0934436-2.30939-0.288746-1.67879-0.288746-1.1161-0.288746-0.55805-0.195013 0 0M-3.14632-0.587069C-3.44406-0.26466-3.59845 0.206911-3.59845 0.812843-3.59845 1.41674-3.43942 1.86162-3.13645 2.1553-2.83349 2.44375-2.3477 2.62396-1.67879 2.69158L0.288746 2.87934 0.288746 3.42027C0.288746 4.21192-0.0528159 4.60833-0.740874 4.60833-1.41413 4.60833-2.24177 4.55581-3.209 4.44727L-3.24702 5.16174C-2.35205 5.34427-1.53427 5.43104-0.803557 5.43104-0.0914122 5.43104 0.423398 5.27231 0.75045 4.9528 1.06822 4.6301 1.22695 4.12022 1.22695 3.42027L1.22695 0.211844C1.25104-0.0983769 1.49132-0.281201 1.95825-0.339241L1.91501-1.0804C1.25568-1.0804 0.760317-0.9118 0.423398-0.577493-0.317766-0.9118-1.06793-1.0804-1.82795-1.0804-2.40516-1.0804-2.83813-0.916734-3.14632-0.587069" fill="#231F20" transform="matrix(1.00166 0 0 -1 1047.08 77.427)"/><path d="M174.748 74.8434 175.677 74.8434 175.677 68.5771 174.748 68.5771ZM174.748 77.3498 175.677 77.3498 175.677 76.2601 174.748 76.2601Z" fill="#231F20" transform="matrix(1.00166 0 0 -1 875 146.962)"/><path d="M0 0 0.928341 0 0.928341-0.435296C1.30328-0.230997 1.65035-0.0818357 1.9626 0 2.27544 0.0818357 2.60249 0.127397 2.9487 0.127397 3.48266 0.127397 3.89648 0.0266982 4.18523-0.172958 4.47368-0.375225 4.68553-0.695023 4.80596-1.13293 4.9261-1.57055 4.98849-2.17677 4.98849-2.95363L4.98849-6.2613 4.05986-6.2613 4.05986-2.98294C4.05986-2.38629 4.02649-1.93417 3.95423-1.61379 3.88226-1.29399 3.7569-1.06793 3.56943-0.923698 3.3866-0.784404 3.11701-0.711854 2.76587-0.711854 2.48235-0.711854 2.1936-0.747839 1.89528-0.820388 1.59696-0.887714 1.36596-0.971581 1.17878-1.0656L0.942851-1.17646 0.942851-6.2613 0-6.2613Z" fill="#231F20" transform="matrix(1.00166 0 0 -1 1052.65 72.1185)"/><path d="M183.961 74.8434 184.884 74.8434 184.884 68.5771 183.961 68.5771ZM183.961 77.3498 184.884 77.3498 184.884 76.2601 183.961 76.2601Z" fill="#231F20" transform="matrix(1.00166 0 0 -1 875 146.962)"/><path d="M0 0 0.932985 0 0.932985-0.435296C1.3085-0.230997 1.65471-0.0818357 1.96725 0 2.28008 0.0818357 2.61178 0.127397 2.9487 0.127397 3.47773 0.127397 3.90141 0.0266982 4.19451-0.172958 4.48326-0.375225 4.69017-0.695023 4.81031-1.13293 4.93045-1.57055 4.99314-2.17677 4.99314-2.95363L4.99314-6.2613 4.06015-6.2613 4.06015-2.98294C4.06015-2.38629 4.03113-1.93417 3.95916-1.61379 3.88226-1.29399 3.76154-1.06793 3.57436-0.923698 3.39125-0.784404 3.12659-0.711854 2.77516-0.711854 2.4867-0.711854 2.19854-0.747839 1.90979-0.820388 1.60624-0.887714 1.37089-0.971581 1.17849-1.0656L0.947204-1.17646 0.947204-6.2613 0-6.2613Z" fill="#231F20" transform="matrix(1.00166 0 0 -1 1061.87 72.1185)"/><path d="M0 0C0.216197 0.209523 0.322119 0.565014 0.322119 1.0656 0.322119 1.55865 0.216197 1.91008 0 2.1167-0.216487 2.33058-0.577203 2.43156-1.07779 2.43156-1.59696 2.43156-1.9626 2.32564-2.18403 2.11177-2.41038 1.89992-2.51572 1.54646-2.51572 1.05313-2.51572 0.560081-2.41038 0.209523-2.18403 0-1.9626-0.206911-1.60189-0.307899-1.09201-0.307899-0.582136-0.307899-0.216487-0.206911 0 0M0.577493-5.06801C0.851439-4.87851 0.991314-4.55581 0.991314-4.0941 0.991314-3.82944 0.942851-3.62253 0.851439-3.48788 0.760027-3.3483 0.605932-3.25718 0.389735-3.20639 0.163381-3.15619-0.144228-3.12949-0.553116-3.12949L-1.89992-3.06942C-2.18403-3.26646-2.36685-3.44-2.46291-3.59351-2.55896-3.74529-2.60713-3.94494-2.60713-4.19509-2.60713-4.633-2.47712-4.92842-2.22756-5.09703-1.97247-5.26795-1.52005-5.34485-0.875525-5.34485-0.182824-5.34485 0.298033-5.25576 0.577493-5.06801M-2.95363-5.71776C-3.33843-5.43859-3.53083-4.97195-3.53083-4.32017-3.53083-4.0558-3.50181-3.83641-3.43942-3.66374-3.37732-3.4902-3.28068-3.34133-3.14632-3.20639-3.01138-3.07638-2.8094-2.89849-2.54474-2.69158L-2.8094-2.35263C-2.86686-2.20347-2.89588-2.04734-2.89588-1.87642L-2.82333-1.52267C-2.76587-1.39266-2.65066-1.16456-2.47277-0.83751-3.12688-0.546151-3.45915 0.0769023-3.45915 1.03891-3.45915 1.76788-3.26153 2.30649-2.87179 2.66256-2.47712 3.01863-1.8857 3.19652-1.09201 3.19652-0.707501 3.19652-0.278589 3.14139 0.187758 3.03314L2.04444 3.08335 2.04444 2.28037 0.851439 2.30649C0.991314 2.16458 1.09695 1.99162 1.16427 1.78471 1.2316 1.58274 1.26091 1.31779 1.26091 1.00292 1.26091 0.259727 1.07286-0.271915 0.683125-0.584748 0.302966-0.904545-0.298323-1.06299-1.12568-1.06299-1.3854-1.06299-1.60189-1.04616-1.76556-1.0154-1.83289-1.17878-1.89064-1.32562-1.92894-1.4507L-1.99133-1.78036C-1.99133-1.99656-1.90457-2.13585-1.74118-2.20347-1.56358-2.27108-1.29892-2.30214-0.942851-2.30214L-0.452127-2.30214C0.0960553-2.30214 0.54354-2.34538 0.885392-2.42953 1.22173-2.51398 1.48175-2.68229 1.66951-2.93709 1.85233-3.19217 1.94345-3.56014 1.94345-4.04593 1.94345-4.7723 1.71739-5.30162 1.26091-5.63592 0.812843-5.96994 0.0673258-6.13855-0.961714-6.13855-1.89992-6.13855-2.56389-5.99896-2.95363-5.71776" fill="#231F20" transform="matrix(1.00166 0 0 -1 1071.75 75.1876)"/><path d="M0 0C-0.466928 0.327052-0.79398 0.805878-0.976804 1.44576-1.14976 2.07839-1.23653 2.91764-1.23653 3.95916-1.23653 5.00097-1.14976 5.83529-0.976804 6.47517-0.79398 7.11274-0.476504 7.60085-0.0148001 7.93051 0.452418 8.25525 1.11146 8.42356 1.98176 8.42356 2.66024 8.42356 3.44435 8.33186 4.32452 8.14671L4.28651 7.33155C3.44435 7.48332 2.7177 7.55529 2.1019 7.55529 1.46201 7.55529 0.966938 7.43979 0.630018 7.2114 0.298033 6.97286 0.0667454 6.60054-0.0533963 6.07818-0.173538 5.56105-0.23593 4.81321-0.23593 3.82451-0.23593 2.97539-0.178181 2.30446-0.0626826 1.82563 0.0478826 1.34477 0.27888 0.983769 0.630018 0.735941 0.976224 0.490434 1.51048 0.36797 2.22204 0.36797 2.79953 0.36797 3.48788 0.44052 4.28651 0.589101L4.32452-0.237962C3.46844-0.41121 2.69855-0.497979 2.04444-0.497979 1.15905-0.497979 0.480857-0.334598 0 0" fill="#231F20" transform="matrix(1.00166 0 0 -1 1078.52 78.0092)"/><path d="M0 0C0.240283 0.156707 0.399021 0.399602 0.504653 0.738552 0.600709 1.07547 0.644238 1.5543 0.644238 2.17242 0.644238 2.82188 0.600709 3.32653 0.495367 3.67564 0.394378 4.02417 0.225774 4.27432-0.019153 4.42377-0.260017 4.57728-0.610865 4.64983-1.05864 4.64983-1.50583 4.64983-1.85726 4.57728-2.1077 4.42377-2.34799 4.27432-2.52588 4.02417-2.63151 3.67564-2.73772 3.32653-2.78589 2.82188-2.78589 2.17242-2.78589 1.55865-2.73772 1.08737-2.64167 0.745807-2.54996 0.401923-2.37207 0.156707-2.12686 0-1.88599-0.156126-1.52528-0.233028-1.05864-0.233028-0.596936-0.233028-0.25044-0.156126 0 0M-2.66082-0.716788C-3.05462-0.495657-3.33901-0.151193-3.49775 0.317766-3.67042 0.786725-3.7479 1.40252-3.7479 2.17242-3.7479 2.9635-3.66113 3.60338-3.48353 4.08192-3.31492 4.56306-3.03111 4.91681-2.63673 5.13301-2.247 5.35443-1.71797 5.46761-1.06822 5.46761-0.408888 5.46761 0.114918 5.35443 0.504653 5.12808 0.889455 4.90463 1.17385 4.55146 1.35145 4.07495 1.52441 3.59845 1.60624 2.9635 1.60624 2.17242 1.60624 1.40252 1.52441 0.786725 1.36074 0.317766 1.18807-0.151193 0.913541-0.495657 0.524096-0.716788 0.144228-0.937918-0.394668-1.04384-1.06822-1.04384-1.73712-1.04384-2.26615-0.937918-2.66082-0.716788" fill="#231F20" transform="matrix(1.00166 0 0 -1 1087.5 77.4587)"/><path d="M0 0 0.928341 0 0.928341-0.853761C1.6402-0.355782 2.40545-0.0266982 3.21829 0.141907L3.21829-0.810231C2.89124-0.880459 2.53981-0.983769 2.15994-1.11842 1.77978-1.25801 1.47188-1.38511 1.25075-1.50351L0.937918-1.66718 0.937918-6.2613 0-6.2613Z" fill="#231F20" transform="matrix(1.00166 0 0 -1 1090.53 72.1185)"/><path d="M0 0C0.269303 0.384802 0.408598 1.00321 0.408598 1.86655 0.408598 2.71306 0.298323 3.3335 0.0528159 3.71395-0.177891 4.09352-0.538897 4.28389-1.02962 4.28389-1.27019 4.28389-1.5395 4.24298-1.8088 4.16607-2.09784 4.08424-2.33812 3.99747-2.53081 3.90606L-2.77109 3.78098-2.77109-0.44052C-2.15036-0.531932-1.6933-0.579814-1.39527-0.579814-0.741164-0.579814-0.274527-0.387704 0 0M-3.71395 4.99575-2.78531 4.99575-2.78531 4.54594C-2.4632 4.73602-2.14108 4.87793-1.83753 4.9763-1.5395 5.07236-1.21244 5.12314-0.865949 5.12314-0.0917024 5.12314 0.476504 4.86806 0.831996 4.35325 1.18313 3.84105 1.36596 3.02066 1.36596 1.90253 1.36596 1.11088 1.2699 0.471571 1.09201-0.00725493 0.899612-0.488692 0.610575-0.839831 0.211554-1.06096-0.187758-1.2847-0.731297-1.39295-1.40514-1.39295-1.87642-1.39295-2.33319-1.34739-2.77109-1.25568L-2.77109-4.04825-3.71395-4.04825Z" fill="#231F20" transform="matrix(1.00166 0 0 -1 1098.46 77.1142)"/><path d="M0 0C0.245507 0.156707 0.413821 0.399602 0.509877 0.738552 0.606512 1.07547 0.654105 1.5543 0.654105 2.17242 0.654105 2.82188 0.596646 3.32653 0.505234 3.67564 0.399602 4.02417 0.230997 4.27432-0.00928632 4.42377-0.25015 4.57728-0.605932 4.64983-1.04877 4.64983-1.49597 4.64983-1.84711 4.57728-2.09755 4.42377-2.34741 4.27432-2.52094 4.02417-2.62164 3.67564-2.72757 3.32653-2.78038 2.82188-2.78038 2.17242-2.78038 1.55865-2.7325 1.08737-2.63586 0.745807-2.53981 0.401923-2.36656 0.156707-2.12134 0-1.87584-0.156126-1.52005-0.233028-1.04877-0.233028-0.591712-0.233028-0.245507-0.156126 0 0M-2.65095-0.716788C-3.04997-0.495657-3.32914-0.151193-3.49253 0.317766-3.66055 0.786725-3.74239 1.40252-3.74239 2.17242-3.74239 2.9635-3.6562 3.60338-3.48266 4.08192-3.30506 4.56306-3.02125 4.91681-2.62658 5.13301-2.23684 5.35443-1.71216 5.46761-1.06299 5.46761-0.399021 5.46761 0.115789 5.35443 0.509877 5.12808 0.899612 4.90463 1.17878 4.55146 1.35174 4.07495 1.52005 3.59845 1.61669 2.9635 1.61669 2.17242 1.61669 1.40252 1.5395 0.786725 1.37118 0.317766 1.193-0.151193 0.923698-0.495657 0.52961-0.716788 0.149452-0.937918-0.389735-1.04384-1.06299-1.04384-1.73161-1.04384-2.26122-0.937918-2.65095-0.716788" fill="#231F20" transform="matrix(1.00166 0 0 -1 1104.7 77.4587)"/><path d="M0 0 0.928341 0 0.928341-0.853761C1.64542-0.355782 2.41038-0.0266982 3.21829 0.141907L3.21829-0.810231C2.89588-0.880459 2.54503-0.983769 2.16487-1.11842 1.77978-1.25801 1.47681-1.38511 1.25568-1.50351L0.942851-1.66718 0.942851-6.2613 0-6.2613Z" fill="#231F20" transform="matrix(1.00166 0 0 -1 1107.73 72.1185)"/><path d="M0 0 0.27946 0.0983769 0.27946 2.16458-1.56765 1.98901C-1.94316 1.95564-2.21275 1.8474-2.38629 1.66457-2.55403 1.47943-2.63586 1.21477-2.63586 0.861016-2.63586 0.0934436-2.31868-0.288746-1.68373-0.288746-1.12045-0.288746-0.562402-0.195013 0 0M-3.14632-0.587069C-3.44406-0.26466-3.59845 0.206911-3.59845 0.812843-3.59845 1.41674-3.44406 1.86162-3.1411 2.1553-2.84277 2.44375-2.35205 2.62396-1.68373 2.69158L0.27946 2.87934 0.27946 3.42027C0.27946 4.21192-0.0574591 4.60833-0.745517 4.60833-1.41907 4.60833-2.24177 4.55581-3.209 4.44727L-3.25166 5.16174C-2.35205 5.34427-1.5395 5.43104-0.807619 5.43104-0.100989 5.43104 0.423688 5.27231 0.745807 4.9528 1.06328 4.6301 1.22231 4.12022 1.22231 3.42027L1.22231 0.211844C1.24611-0.0983769 1.4919-0.281201 1.95332-0.339241L1.91008-1.0804C1.25104-1.0804 0.755384-0.9118 0.423688-0.577493-0.321829-0.9118-1.07257-1.0804-1.83289-1.0804-2.4098-1.0804-2.84277-0.916734-3.14632-0.587069" fill="#231F20" transform="matrix(1.00166 0 0 -1 1115.15 77.427)"/><path d="M0 0C-0.245507 0.139295-0.408888 0.36797-0.51481 0.702278-0.620732 1.02933-0.673258 1.49103-0.673258 2.08275L-0.673258 5.37823-1.55865 5.37823-1.55865 6.19368-0.673258 6.19368-0.673258 8.11073 0.25015 8.11073 0.25015 6.19368 2.25135 6.19368 2.25135 5.37823 0.25015 5.37823 0.25015 2.38629C0.25015 1.91704 0.269593 1.56852 0.302966 1.33984 0.336339 1.10884 0.423108 0.932985 0.548183 0.810231 0.678191 0.695023 0.880169 0.630018 1.15441 0.630018L2.27021 0.709242 2.3329-0.067616C1.73625-0.163671 1.29399-0.209523 0.990444-0.209523 0.572559-0.209523 0.240283-0.139295 0 0" fill="#231F20" transform="matrix(1.00166 0 0 -1 1119.11 78.3121)"/><path d="M246.976 74.8434 247.9 74.8434 247.9 68.5771 246.976 68.5771ZM246.976 77.3498 247.9 77.3498 247.9 76.2601 246.976 76.2601Z" fill="#231F20" transform="matrix(1.00166 0 0 -1 875 146.962)"/><path d="M0 0C0.245507 0.156707 0.403955 0.399602 0.50001 0.738552 0.600999 1.07547 0.649172 1.5543 0.649172 2.17242 0.649172 2.82188 0.600999 3.32653 0.50001 3.67564 0.394088 4.02417 0.226064 4.27432-0.019153 4.42377-0.260017 4.57728-0.606512 4.64983-1.05371 4.64983-1.50583 4.64983-1.85697 4.57728-2.10741 4.42377-2.3477 4.27432-2.53052 4.02417-2.62658 3.67564-2.7325 3.32653-2.78589 2.82188-2.78589 2.17242-2.78589 1.55865-2.73743 1.08737-2.64138 0.745807-2.55461 0.401923-2.37207 0.156707-2.12657 0-1.8857-0.156126-1.52992-0.233028-1.05371-0.233028-0.601289-0.233028-0.25015-0.156126 0 0M-2.66053-0.716788C-3.0552-0.495657-3.33901-0.151193-3.50239 0.317766-3.66606 0.786725-3.75283 1.40252-3.75283 2.17242-3.75283 2.9635-3.66606 3.60338-3.48788 4.08192-3.3097 4.56306-3.02618 4.91681-2.63151 5.13301-2.24206 5.35443-1.71768 5.46761-1.06793 5.46761-0.408888 5.46761 0.105342 5.35443 0.50001 5.12808 0.889455 4.90463 1.17356 4.55146 1.35174 4.07495 1.5247 3.59845 1.61147 2.9635 1.61147 2.17242 1.61147 1.40252 1.52963 0.786725 1.36596 0.317766 1.193-0.151193 0.913832-0.495657 0.52903-0.716788 0.144228-0.937918-0.394378-1.04384-1.06793-1.04384-1.73683-1.04384-2.27079-0.937918-2.66053-0.716788" fill="#231F20" transform="matrix(1.00166 0 0 -1 1128.4 77.4587)"/><path d="M0 0 0.919345 0 0.919345-0.435296C1.29921-0.230997 1.64078-0.0818357 1.95825 0 2.26615 0.0818357 2.59814 0.127397 2.93941 0.127397 3.47366 0.127397 3.88226 0.0266982 4.17594-0.172958 4.47397-0.375225 4.68088-0.695023 4.79667-1.13293 4.91681-1.57055 4.97921-2.17677 4.97921-2.95363L4.97921-6.2613 4.05087-6.2613 4.05087-2.98294C4.05087-2.38629 4.02214-1.93417 3.94959-1.61379 3.88226-1.29399 3.75283-1.06793 3.57001-0.923698 3.38225-0.784404 3.11295-0.711854 2.76181-0.711854 2.478-0.711854 2.18432-0.747839 1.89093-0.820388 1.59754-0.887714 1.35232-0.971581 1.17385-1.0656L0.938498-1.17646 0.938498-6.2613 0-6.2613Z" fill="#231F20" transform="matrix(1.00166 0 0 -1 1131.43 72.1185)"/><path d="M35.9981 80.8304 37.0855 80.8304 37.0855 79.5942 35.9981 79.5942ZM34.2662 80.8304 35.3632 80.8304 35.3632 79.5942 34.2662 79.5942ZM42.1802 84.9651 40.5925 84.9651 40.5925 84.9001C40.5925 83.9091 40.3421 83.1395 39.8371 82.591 39.3319 82.0353 38.6151 81.7637 37.6914 81.7637L34.2326 81.7637C33.6121 81.7637 33.0297 81.8766 32.4914 82.1076 31.9525 82.3336 31.5244 82.6633 31.1974 83.0986 30.8703 83.5362 30.7017 84.0438 30.7017 84.6163 30.7017 85.1285 30.8169 86.0548 31.043 87.3776L32.1928 87.1997C32.0198 86.009 31.9333 85.2295 31.9333 84.8473 31.9333 84.4599 32.0294 84.121 32.2267 83.8177 32.424 83.5121 32.6933 83.2788 33.0349 83.1128 33.3718 82.9445 33.7514 82.8603 34.1603 82.8603L37.6096 82.8603C38.192 82.8603 38.62 83.0336 38.9134 83.3775 39.2071 83.7216 39.3513 84.1953 39.3513 84.8087L39.3513 84.9651 39.1203 84.9651C38.7976 84.9651 38.4999 84.9939 38.2112 85.0516 37.9366 85.1166 37.6627 85.2321 37.4027 85.4051L37.9224 86.3337C38.091 86.211 38.2689 86.1364 38.4471 86.11 38.625 86.074 38.8847 86.0595 39.2263 86.0595L42.1802 86.0595Z" fill="#231F20" transform="matrix(1.00166 0 0 -1 875 146.962)"/><path d="M44.0514 93.8818 45.2299 93.8818 45.2299 92.6188 44.0514 92.6188ZM47.5631 86.0595 47.5631 84.9651 42.103 84.9651 42.103 86.0595 44.0273 86.0595 44.0273 91.4186 45.254 91.4186 45.254 86.0595Z" fill="#231F20" transform="matrix(1.00166 0 0 -1 875 146.962)"/><path d="M0 0C-0.23564-0.242895-0.346205-0.536285-0.346205-0.892357L-0.346205-1.77253 2.07839-1.77253 2.07839-0.877847C2.07839-0.536285 1.96319-0.242895 1.72725 0 1.49597 0.238252 1.21244 0.361006 0.865949 0.361006 0.519744 0.361006 0.231287 0.238252 0 0M7.43254-1.77253 7.43254-2.86715-3.02095-2.86715-3.02095-1.77253-1.5778-1.77253-1.5778-0.969259C-1.5778-0.536285-1.46695-0.139295-1.24582 0.238252-1.0244 0.613477-0.731007 0.906867-0.360425 1.13293 0.00522355 1.35899 0.413821 1.47217 0.865949 1.47217 1.30908 1.47217 1.72232 1.35899 2.08826 1.14019 2.4632 0.919055 2.75165 0.623054 2.96843 0.25015 3.18492-0.125075 3.29084-0.531642 3.29084-0.969259L3.29084-1.77253 4.98385-1.77253 4.98385-0.158738C4.98385 1.08244 4.66144 1.94839 4.01749 2.44143 3.37761 2.93941 2.59814 3.18956 1.67473 3.18956 1.08737 3.18956 0.149452 3.07174-1.13496 2.83842L-1.22666 3.79317C-0.00493336 4.12051 1.04413 4.28157 1.91966 4.28157 2.75165 4.28157 3.48788 4.12777 4.12777 3.81726 4.76765 3.50936 5.2726 3.02125 5.64782 2.36221 6.0184 1.69824 6.2108 0.861016 6.2108-0.14655L6.2108-1.77253Z" fill="#231F20" transform="matrix(1.00166 0 0 -1 925.668 59.1295)"/><path d="M0 0C0.0481728-0.384802 0.0864788-0.692701 0.129718-0.92602L3.30506-0.92602 3.30506 1.23392C3.30506 2.02297 3.13645 2.59291 2.8094 2.94173 2.47712 3.29055 1.95303 3.46844 1.23131 3.46844 0.861016 3.46844 0.495367 3.42781 0.144228 3.34598 0.0142197 2.55693-0.048463 1.82331-0.048463 1.1547-0.048463 0.76496-0.0287295 0.380159 0 0M5.96559-0.92602 5.96559-2.01803 5.45977-2.01803C5.30626-2.01803 5.14288-1.97247 4.96934-1.86887 4.7958-1.77514 4.65157-1.65006 4.53143-1.49132L4.53143-2.01803-5.14752-2.01803-5.14752-0.92602-1.0775-0.92602C-1.20287-0.216487-1.26033 0.476214-1.26033 1.1547-1.26033 1.69591-1.22173 2.2441-1.15005 2.79982-1.06822 3.35323-0.986091 3.81726-0.885392 4.18784-0.659038 4.28389-0.336629 4.36805 0.0722591 4.44495 0.481147 4.52215 0.914122 4.56306 1.39991 4.56306 2.5163 4.56306 3.31928 4.2984 3.80042 3.77402 4.28622 3.24963 4.53143 2.39326 4.53143 1.20751L4.53143-0.394378C4.62778-0.545861 4.75314-0.67587 4.91188-0.776858 5.07526-0.875525 5.25315-0.92602 5.45977-0.92602Z" fill="#231F20" transform="matrix(1.00166 0 0 -1 938.274 59.9763)"/><path d="M0 0 0-9.19084-2.81375-9.19084-2.81375-8.09622-1.22666-8.09622-1.22666 0Z" fill="#231F20" transform="matrix(1.00166 0 0 -1 947.068 52.8058)"/><path d="M74.1951 94.1534 75.4168 94.1534 75.4168 84.9625 74.1951 84.9625Z" fill="#231F20" transform="matrix(1.00166 0 0 -1 875 146.962)"/><path d="M0 0C0.206911-0.401633 0.639305-0.603611 1.30328-0.603611L2.68926-0.603611 2.68926 3.81C2.26064 3.87501 1.89064 3.90141 1.563 3.90141 0.865369 3.90141 0.379868 3.7212 0.110275 3.35555-0.163381 2.98758-0.303546 2.37904-0.30819 1.52992-0.30819 0.909188-0.206911 0.39699 0 0M2.65008 4.91914C3.16054 4.8611 3.58365 4.7987 3.91099 4.73138L3.91099-0.79369C3.91099-2.09261 3.74239-3.10279 3.40576-3.8219 3.05955-4.5413 2.42895-4.89969 1.49597-4.89969 1.13496-4.89969 0.45648-4.83004-0.538897-4.6951L-0.538897-3.59613C0.297743-3.7331 0.947204-3.80275 1.40427-3.80275 1.69794-3.80275 1.93852-3.74993 2.11612-3.64894 2.2943-3.54302 2.42895-3.34336 2.52994-3.03779 2.62164-2.72989 2.67446-2.28501 2.67446-1.69562L0.899612-1.69562C-0.0966357-1.69562-0.755674-1.39266-1.06357-0.781792-1.38105-0.173248-1.53514 0.586779-1.53514 1.49365-1.52528 2.34276-1.43387 3.02125-1.25568 3.5288-1.08273 4.03868-0.789337 4.40665-0.385382 4.64722 0.0284393 4.88286 0.586489 4.99836 1.28906 4.99836 1.68373 4.99836 2.14021 4.97195 2.65008 4.91914" fill="#231F20" transform="matrix(1.00166 0 0 -1 953.767 60.2987)"/><path d="M91.9273 80.8304 93.0146 80.8304 93.0146 79.5942 91.9273 79.5942ZM90.1954 80.8304 91.2973 80.8304 91.2973 79.5942 90.1954 79.5942ZM98.114 84.9651 96.5164 84.9651 96.5164 84.9001C96.5164 83.9091 96.2712 83.1395 95.7712 82.591 95.2709 82.0353 94.5541 81.7637 93.6255 81.7637L90.1669 81.7637C89.541 81.7637 88.9687 81.8766 88.4255 82.1076 87.8863 82.3336 87.4585 82.6633 87.1262 83.0986 86.8041 83.5362 86.6358 84.0438 86.6358 84.6163 86.6358 85.1285 86.7461 86.0548 86.9722 87.3776L88.1219 87.1997C87.949 86.009 87.8622 85.2295 87.8622 84.8473 87.8622 84.4599 87.9681 84.121 88.1652 83.8177 88.3578 83.5121 88.6274 83.2788 88.9687 83.1128 89.3106 82.9445 89.6855 82.8603 90.0993 82.8603L93.5437 82.8603C94.1212 82.8603 94.5541 83.0336 94.8525 83.3775 95.1363 83.7216 95.2901 84.1953 95.2901 84.8087L95.2901 84.9651 95.0544 84.9651C94.737 84.9651 94.434 84.9939 94.1499 85.0516 93.8664 85.1166 93.5968 85.2321 93.3365 85.4051L93.8562 86.3337C94.0297 86.211 94.2027 86.1364 94.3812 86.11 94.5684 86.074 94.8234 86.0595 95.1607 86.0595L98.114 86.0595Z" fill="#231F20" transform="matrix(1.00166 0 0 -1 875 146.962)"/><path d="M99.9852 93.8818 101.159 93.8818 101.159 92.6188 99.9852 92.6188ZM103.112 86.0595 103.112 84.9651 98.0368 84.9651 98.0368 86.0595 99.9617 86.0595 99.9617 91.4186 101.183 91.4186 101.183 86.0595Z" fill="#231F20" transform="matrix(1.00166 0 0 -1 875 146.962)"/><path d="M107.653 93.8722 108.741 93.8722 108.741 92.6237 107.653 92.6237ZM105.922 93.8722 107.019 93.8722 107.019 92.6237 105.922 92.6237ZM105.835 86.7667C105.912 86.4782 106.013 86.2423 106.129 86.0595L108.727 86.0595 108.727 90.281C108.193 90.3265 107.817 90.3457 107.605 90.3457 107.081 90.3457 106.697 90.2737 106.427 90.1269 106.157 89.9827 105.975 89.7447 105.869 89.4174 105.773 89.0903 105.715 88.6283 105.715 88.0343 105.715 87.4762 105.758 87.0551 105.835 86.7667M111.122 86.0595 111.122 84.9651 103.112 84.9651 103.112 86.0595 104.787 86.0595C104.589 86.5551 104.488 87.2429 104.488 88.1257 104.488 88.9797 104.594 89.6388 104.801 90.1101 105.003 90.579 105.335 90.9087 105.782 91.1107 106.239 91.3057 106.869 91.4043 107.678 91.4043 108.356 91.4043 108.957 91.3776 109.501 91.3152L109.948 91.2648 109.948 86.0595Z" fill="#231F20" transform="matrix(1.00166 0 0 -1 875 146.962)"/><path d="M113.98 93.8722 115.067 93.8722 115.067 92.6237 113.98 92.6237ZM112.247 93.8722 113.345 93.8722 113.345 92.6237 112.247 92.6237ZM116.198 86.0595 116.198 84.9651 111.122 84.9651 111.122 86.0595 113.051 86.0595 113.051 91.4186 114.278 91.4186 114.278 86.0595Z" fill="#231F20" transform="matrix(1.00166 0 0 -1 875 146.962)"/><path d="M0 0 0-9.19084-2.81433-9.19084-2.81433-8.09622-1.22724-8.09622-1.22724 0Z" fill="#231F20" transform="matrix(1.00166 0 0 -1 994.21 52.8058)"/><path d="M121.263 94.1534 122.485 94.1534 122.485 84.9625 121.263 84.9625Z" fill="#231F20" transform="matrix(1.00166 0 0 -1 875 146.962)"/><path d="M131.082 83.9332 132.255 83.9332 132.255 82.6679 131.082 82.6679ZM137.576 86.0595 137.576 84.9651 130.625 84.9651C129.836 84.9651 129.191 85.0275 128.691 85.1599 128.19 85.2896 127.82 85.5133 127.57 85.8383 127.305 86.1581 127.185 86.6056 127.185 87.1852 127.185 87.5485 127.228 87.9887 127.305 88.5128 127.392 89.0398 127.478 89.5378 127.589 90.0114L128.551 89.9612 128.436 89.0012C128.33 88.2821 128.277 87.7745 128.277 87.4666 128.277 86.9663 128.45 86.6103 128.777 86.3892 129.104 86.1703 129.706 86.0595 130.567 86.0595L134.454 86.0595 134.454 91.4186 135.676 91.4186 135.676 86.0595Z" fill="#231F20" transform="matrix(1.00166 0 0 -1 875 146.962)"/><path d="M140.424 83.9332 141.516 83.9332 141.516 82.6944 140.424 82.6944ZM138.697 83.9332 139.794 83.9332 139.794 82.6944 138.697 82.6944ZM140.727 91.4186 140.727 84.9651 137.576 84.9651 137.576 86.0595 139.496 86.0595 139.496 91.4186Z" fill="#231F20" transform="matrix(1.00166 0 0 -1 875 146.962)"/><path d="M0 0-0.307899 0.026408-0.307899 1.11117C-0.0290197 1.08737 0.206911 1.07518 0.389735 1.07518 0.769603 1.07518 1.06328 1.22666 1.26497 1.5395 1.46259 1.84478 1.56387 2.28008 1.56387 2.84074L1.56387 9.61656 2.77574 9.61656 2.77574 3.09815C2.77574 2.08304 2.60278 1.30589 2.24642 0.769603 1.89557 0.230707 1.36161-0.0385963 0.639885-0.0385963 0.447484-0.0385963 0.23564-0.0240864 0 0" fill="#231F20" transform="matrix(1.00166 0 0 -1 1017.78 65.174)"/><path d="M0 0 0-1.09433-6.65771-1.09433-6.65771 0-2.47741 0-2.47741 1.19068C-2.47741 2.41241-2.71306 3.27372-3.18927 3.77866-3.66055 4.27925-4.21396 4.53404-4.85384 4.53404L-5.97516 4.53404-6.066 5.44788C-5.93599 5.49141-5.72908 5.53464-5.43133 5.57788-5.13765 5.62141-4.86806 5.64289-4.60862 5.64289-3.9876 5.64289-3.4252 5.49373-2.92983 5.19802-2.41996 4.90201-2.01513 4.42348-1.71216 3.7717-1.41442 3.1173-1.26497 2.27776-1.26497 1.25568L-1.26497 0Z" fill="#231F20" transform="matrix(1.00166 0 0 -1 1028.63 60.9023)"/><path d="M156.232 93.8722 157.314 93.8722 157.314 92.6237 156.232 92.6237ZM154.5 93.8722 155.597 93.8722 155.597 92.6237 154.5 92.6237ZM158.45 86.0595 158.45 84.9651 153.374 84.9651 153.374 86.0595 155.303 86.0595 155.303 91.4186 156.525 91.4186 156.525 86.0595Z" fill="#231F20" transform="matrix(1.00166 0 0 -1 875 146.962)"/><path d="M0 0 0-1.09433-4.35876-1.09433-4.35876 0-2.77574 0-2.77574 8.09622-1.54414 8.09622-1.54414 0Z" fill="#231F20" transform="matrix(1.00166 0 0 -1 1038.08 60.9023)"/><path d="M0 0 0-9.19084-2.81433-9.19084-2.81433-8.09622-1.22231-8.09622-1.22231 0Z" fill="#231F20" transform="matrix(1.00166 0 0 -1 1040.9 52.8058)"/><path d="M173.835 93.8722 174.922 93.8722 174.922 92.6237 173.835 92.6237ZM172.107 93.8722 173.2 93.8722 173.2 92.6237 172.107 92.6237ZM171.53 86.9542C171.665 86.632 171.886 86.4083 172.184 86.271 172.482 86.1294 172.896 86.0595 173.42 86.0595L175.013 86.0595 175.013 90.3625C174.325 90.4133 173.776 90.4348 173.372 90.4348 172.862 90.4348 172.459 90.3675 172.165 90.2232 171.866 90.0836 171.655 89.8576 171.53 89.5401 171.391 89.2226 171.333 88.8016 171.333 88.2699 171.333 87.7072 171.391 87.2742 171.53 86.9542M177.654 86.0595 177.654 84.9651 173.282 84.9651C172.487 84.9651 171.862 85.0661 171.41 85.2754 170.948 85.4823 170.621 85.8212 170.409 86.2928 170.212 86.769 170.106 87.4211 170.106 88.2557 170.106 89.0735 170.207 89.7206 170.4 90.1942 170.597 90.6803 170.924 91.0219 171.371 91.2311 171.814 91.4403 172.434 91.5486 173.214 91.5486 173.599 91.5486 174.113 91.5268 174.777 91.4958 175.436 91.4618 175.922 91.4258 176.22 91.3922L176.22 86.0595Z" fill="#231F20" transform="matrix(1.00166 0 0 -1 875 146.962)"/><path d="M0 0C0.0385963-0.384802 0.0774827-0.692701 0.120142-0.92602L3.30041-0.92602 3.30041 1.23392C3.30041 2.02297 3.12717 2.59291 2.79982 2.94173 2.47277 3.29055 1.94374 3.46844 1.21244 3.46844 0.852019 3.46844 0.486371 3.42781 0.134942 3.34598 0.00522355 2.55693-0.0574591 1.82331-0.0574591 1.1547-0.0574591 0.76496-0.0333727 0.380159 0 0M3.79549 3.77402C4.272 3.24963 4.52215 2.39326 4.52215 1.20751L4.52215-2.01803-3.18492-2.01803-3.18492-0.92602-1.09172-0.92602C-1.21244-0.216487-1.2699 0.476214-1.2699 1.1547-1.2699 1.69591-1.2316 2.2441-1.15441 2.79982-1.07721 3.35323-0.995667 3.81726-0.894678 4.18784-0.663391 4.28389-0.341272 4.36805 0.0626826 4.44495 0.471571 4.52215 0.914122 4.56306 1.38569 4.56306 2.50643 4.56306 3.30506 4.2984 3.79549 3.77402" fill="#231F20" transform="matrix(1.00166 0 0 -1 1056.14 59.9763)"/><path d="M0 0 0-1.09433-2.44869-1.09433-2.44869 8.09622-1.22231 8.09622-1.22231 0Z" fill="#231F20" transform="matrix(1.00166 0 0 -1 1064.97 60.9023)"/><path d="M0 0C0.360715-0.560371 0.870592-1.04152 1.51541-1.44808 2.17445-1.03194 2.68433-0.550795 3.05462 0.00464316 3.42027 0.562693 3.60802 1.13293 3.60802 1.7319 2.81433 2.01078 2.11699 2.15268 1.51541 2.15268 0.923988 2.15268 0.23564 2.01078-0.548763 1.7319-0.548763 1.13293-0.365939 0.555728 0 0M5.51288-2.2322 5.51288-3.33147 4.06015-3.33147C3.63646-3.33147 3.20407-3.28097 2.76123-3.17737 2.31868-3.07174 1.90021-2.93215 1.51541-2.75165 1.14483-2.93215 0.745227-3.07174 0.298033-3.17737-0.134942-3.28097-0.562983-3.33147-0.976804-3.33147L-2.60713-3.33147-2.60713-2.2322-1.01511-2.2322C-0.577203-2.2322-0.120142-2.15268 0.341562-1.9893-0.288456-1.49132-0.79398-0.933275-1.16892-0.317476-1.5395 0.298033-1.73683 0.856372-1.75627 1.36625L-1.78965 2.34509C-1.2699 2.63151-0.731588 2.85264-0.168314 3.01863 0.394088 3.17998 0.952138 3.26153 1.50119 3.26153 2.04937 3.26153 2.617 3.17998 3.18492 3.01863 3.75719 2.85264 4.30566 2.63151 4.8254 2.34509L4.78216 1.36625C4.76707 0.856372 4.56509 0.298033 4.1948-0.317476 3.81987-0.933275 3.31434-1.49132 2.67939-1.9893 3.15067-2.15268 3.60802-2.2322 4.04593-2.2322Z" fill="#231F20" transform="matrix(1.00166 0 0 -1 1067.58 58.6652)"/><path d="M0 0 0-9.19084-2.8094-9.19084-2.8094-8.09622-1.22173-8.09622-1.22173 0Z" fill="#231F20" transform="matrix(1.00166 0 0 -1 1075.93 52.8058)"/><path d="M202.838 94.1534 204.065 94.1534 204.065 84.9625 202.838 84.9625Z" fill="#231F20" transform="matrix(1.00166 0 0 -1 875 146.962)"/><path d="M212.315 93.8722 213.398 93.8722 213.398 92.6237 212.315 92.6237ZM210.588 93.8722 211.685 93.8722 211.685 92.6237 210.588 92.6237ZM210.011 86.9542C210.146 86.632 210.357 86.4083 210.665 86.271 210.963 86.1294 211.377 86.0595 211.901 86.0595L213.489 86.0595 213.489 90.3625C212.796 90.4133 212.257 90.4348 211.853 90.4348 211.343 90.4348 210.939 90.3675 210.646 90.2232 210.348 90.0836 210.136 89.8576 210.001 89.5401 209.876 89.2226 209.809 88.8016 209.809 88.2699 209.809 87.7072 209.876 87.2742 210.011 86.9542M216.135 86.0595 216.135 84.9651 211.757 84.9651C210.973 84.9651 210.348 85.0661 209.89 85.2754 209.428 85.4823 209.101 85.8212 208.895 86.2928 208.692 86.769 208.577 87.4211 208.577 88.2557 208.577 89.0735 208.683 89.7206 208.88 90.1942 209.082 90.6803 209.405 91.0219 209.852 91.2311 210.294 91.4403 210.91 91.5486 211.694 91.5486 212.075 91.5486 212.594 91.5268 213.253 91.4958 213.926 91.4618 214.403 91.4258 214.706 91.3922L214.706 86.0595Z" fill="#231F20" transform="matrix(1.00166 0 0 -1 875 146.962)"/><path d="M0 0 0-1.09433-3.66548-1.09433C-4.20438-1.09433-4.68088-0.921377-5.10399-0.577203-5.42176-0.921377-5.835-1.09433-6.35474-1.09433L-11.0934-1.09433-11.0934 0-9.03878 0-9.03878 4.71193-7.81734 4.71193-7.81734 0-6.75405 0C-6.3739 0-6.09531 0.16106-5.9267 0.481147-5.7491 0.798333-5.65711 1.20026-5.65711 1.68111L-5.65711 4.71193-4.43073 4.71193-4.43073 1.69098C-4.43073 1.2049-4.48819 0.760027-4.59411 0.380159-4.47891 0.281491-4.33468 0.197334-4.16114 0.115208-3.9876 0.0383061-3.81987 0-3.6414 0L-2.40545 0-2.40545 2.49425C-2.40545 3.09321-2.47741 4.03868-2.61178 5.32309L-1.5778 5.35907C-1.47681 4.85152-1.38047 4.31756-1.30357 3.76676-1.22173 3.21365-1.17849 2.78764-1.17849 2.49425L-1.17849 0Z" fill="#231F20" transform="matrix(1.00166 0 0 -1 1102.61 60.9023)"/><path d="M0 0C0.0818357-0.55805 0.120142-0.979126 0.120142-1.27252L0.120142-4.86371-2.36627-4.86371C-2.90546-4.86371-3.38167-4.68814-3.80042-4.3489-4.12777-4.68814-4.54072-4.86371-5.05553-4.86371L-9.79445-4.86371-9.79445-3.76183-7.74043-3.76183-7.74043 0.945173-6.51319 0.945173-6.51319-3.76183-5.45513-3.76183C-5.0799-3.76183-4.7958-3.6057-4.62749-3.28561-4.44466-2.96843-4.35818-2.56651-4.35818-2.08565L-4.35818 0.945173-3.1263 0.945173-3.1263-2.07114C-3.1263-2.56186-3.18898-3.00674-3.29983-3.39386-3.17476-3.48527-3.03546-3.57204-2.86193-3.65155-2.68926-3.72846-2.51572-3.76183-2.34276-3.76183L-1.10652-3.76183-1.10652-1.27252C-1.10652-0.668615-1.17385 0.269303-1.30821 1.55372L-0.27888 1.59231C-0.182824 1.08476-0.0815455 0.550795 0 0" fill="#231F20" transform="matrix(1.00166 0 0 -1 1112.41 57.1356)"/><path d="M0 0-2.6939-0.52903-2.82855-0.0650042-2.20782 0.100989C-2.36221 0.223742-2.47712 0.36797-2.55461 0.536575-2.63122 0.704889-2.66982 0.875525-2.66982 1.05835-2.66982 1.38308-2.55461 1.66689-2.32361 1.90979-2.09755 2.15036-1.78965 2.27312-1.41413 2.27312-1.09695 2.27312-0.769313 2.16719-0.466347 1.9629L-0.610575 1.37844-0.836929 1.50816-1.18313 1.5778C-1.39005 1.5778-1.56358 1.50583-1.69794 1.36132-1.83724 1.21941-1.90979 1.05139-1.90979 0.854051-1.90979 0.613477-1.8088 0.413821-1.60682 0.257405L-0.153514 0.644819ZM-2.87673-6.61708C-2.66982-7.01639-2.24206-7.21837-1.5778-7.21837L-0.192401-7.21837-0.192401-2.80476C-0.615799-2.73975-0.986091-2.70841-1.3233-2.70841-2.01078-2.70841-2.49657-2.89356-2.76587-3.25921-3.04533-3.62486-3.18492-4.23572-3.18956-5.08484-3.18956-5.70789-3.08364-6.21313-2.87673-6.61708M2.62164-8.31299 1.01018-8.31299C0.942851-9.33043 0.741164-10.1192 0.384802-10.6772 0.0240864-11.233-0.562983-11.5145-1.38511-11.5145-1.75105-11.5145-2.42431-11.4448-3.41998-11.3099L-3.41998-10.2109C-2.5784-10.3502-1.92401-10.4175-1.47188-10.4175-1.18313-10.4175-0.942851-10.3647-0.760027-10.2637-0.577203-10.1601-0.442261-9.95319-0.346205-9.65254-0.255084-9.34465-0.206911-8.89745-0.206911-8.31299L-1.97247-8.31299C-2.97772-8.31299-3.63675-8.00742-3.94494-7.40119-4.26213-6.78801-4.41622-6.02769-4.41622-5.12576-4.40636-4.26938-4.31523-3.59351-4.13705-3.08596-3.95916-2.57608-3.67013-2.20811-3.26153-1.97015-2.84771-1.7319-2.29459-1.6164-1.58767-1.6164-1.18807-1.6164-0.740874-1.64281-0.230997-1.69562 0.288746-1.75337 0.707501-1.81606 1.03455-1.8857L1.03455-7.21837 2.62164-7.21837Z" fill="#231F20" transform="matrix(1.00166 0 0 -1 1118.34 53.684)"/><path d="M0 0C0.0333727-0.384802 0.0725493-0.692701 0.110855-0.92602L3.29548-0.92602 3.29548 1.23392C3.29548 2.02297 3.12717 2.59291 2.79518 2.94173 2.46813 3.29055 1.94345 3.46844 1.21709 3.46844 0.852019 3.46844 0.48579 3.42781 0.130008 3.34598 0.00522355 2.55693-0.0626826 1.82331-0.0626826 1.1547-0.0626826 0.76496-0.0383061 0.380159 0 0M5.95572-0.92602 5.95572-2.01803 5.45078-2.01803C5.29175-2.01803 5.12808-1.97247 4.95976-1.86887 4.78681-1.77514 4.64229-1.65006 4.52215-1.49132L4.52215-2.01803-3.18898-2.01803-3.18898-0.92602-1.0923-0.92602C-1.21709-0.216487-1.2699 0.476214-1.2699 1.1547-1.2699 1.69591-1.23653 2.2441-1.1547 2.79982-1.08215 3.35323-1.00031 3.81726-0.909479 4.18784-0.668615 4.28389-0.346205 4.36805 0.0626826 4.44495 0.466347 4.52215 0.909479 4.56306 1.38569 4.56306 2.50643 4.56306 3.30506 4.2984 3.79085 3.77402 4.27693 3.24963 4.52215 2.39326 4.52215 1.20751L4.52215-0.394378C4.61327-0.545861 4.73834-0.67587 4.9023-0.776858 5.06104-0.875525 5.23922-0.92602 5.45078-0.92602Z" fill="#231F20" transform="matrix(1.00166 0 0 -1 1124.16 59.9763)"/><path d="M0 0 0-9.19084-2.81433-9.19084-2.81433-8.09622-1.22173-8.09622-1.22173 0Z" fill="#231F20" transform="matrix(1.00166 0 0 -1 1132.94 52.8058)"/><path d="M259.753 94.1534 260.98 94.1534 260.98 84.9625 259.753 84.9625Z" fill="#231F20" transform="matrix(1.00166 0 0 -1 875 146.962)"/><path d="M42.6007 57.1892 43.9672 57.1892 43.9672 55.7173 42.6007 55.7173ZM40.0321 50.1151 40.0321 48.0874 46.2804 48.0874 46.2804 50.3402C46.2804 51.1514 46.0848 51.8295 45.6945 52.3757 45.3039 52.921 44.7432 53.194 44.0122 53.194 42.6404 53.194 41.3137 52.1676 40.0321 50.1151M47.707 46.8109 40.0321 46.8109 40.0321 46.2099C40.0321 45.5993 39.8644 45.056 39.5287 44.5804 39.1932 44.1051 38.7254 43.7368 38.1247 43.4765 37.524 43.2162 36.8429 43.0859 36.0823 43.0859 35.241 43.0859 34.5149 43.2388 33.9043 43.5441 33.2935 43.8497 32.8277 44.2525 32.5076 44.7531 32.187 45.254 32.0268 45.7894 32.0268 46.3602 32.0268 47.021 32.2319 48.548 32.6426 50.9412L34.0094 50.8661C33.8692 49.9949 33.7366 49.1438 33.6112 48.3129 33.4862 47.4815 33.4235 46.9258 33.4235 46.6455 33.4235 46.2351 33.5338 45.8547 33.754 45.5041 33.9743 45.1538 34.2822 44.8758 34.6777 44.6707 35.0733 44.4655 35.521 44.3628 36.0222 44.3628 36.5028 44.3628 36.9407 44.4553 37.3362 44.6405 37.7318 44.8259 38.042 45.0813 38.2675 45.4063 38.4927 45.7319 38.6052 46.0949 38.6052 46.4954L38.6052 54.3206 40.0321 54.3206 40.0321 51.9175C40.4828 52.4781 40.8908 52.9335 41.2565 53.284 41.6218 53.6346 42.0499 53.9198 42.5406 54.1404 43.031 54.3604 43.5966 54.4706 44.2377 54.4706 45.4995 54.4706 46.3933 54.0826 46.9185 53.3066 47.4441 52.5307 47.707 51.6221 47.707 50.5805Z" fill="#231F20" transform="matrix(1.00166 0 0 -1 875 146.962)"/><path d="M0 0 0-1.27658-2.85351-1.27658-2.85351 9.4172-1.42661 9.4172-1.42661 0Z" fill="#231F20" transform="matrix(1.00166 0 0 -1 927.856 98.8744)"/><path d="M56.0879 45.6092 57.3494 45.6092 57.3494 44.1675 56.0879 44.1675ZM54.0751 45.6092 55.3517 45.6092 55.3517 44.1675 54.0751 44.1675ZM56.4332 54.3206 56.4332 46.8109 52.7686 46.8109 52.7686 48.0874 55.0063 48.0874 55.0063 54.3206Z" fill="#231F20" transform="matrix(1.00166 0 0 -1 875 146.962)"/><path d="M0 0-2.07288 0-2.07288-0.0902514C-2.07288-1.27135-2.27805-2.17532-2.68839-2.80099-3.09931-3.42694-3.71975-3.73977-4.55088-3.73977-4.78129-3.73977-5.03144-3.72468-5.30191-3.69479L-5.66233-3.66461-5.66233-2.40312C-5.3318-2.43301-5.06133-2.44811-4.85123-2.44811-4.40055-2.44811-4.06044-2.26789-3.82973-1.90747-3.59961-1.54704-3.4844-1.04123-3.4844-0.390606L-3.4844 7.49464-2.07288 7.49464-2.07288 1.27658 0 1.27658Z" fill="#231F20" transform="matrix(1.00166 0 0 -1 938.959 100.151)"/><path d="M0 0 0-10.6938-3.2743-10.6938-3.2743-9.4172-1.4269-9.4172-1.4269 0Z" fill="#231F20" transform="matrix(1.00166 0 0 -1 942.239 89.4572)"/><path d="M0 0 0-1.27658-2.85351-1.27658-2.85351 9.4172-1.42661 9.4172-1.42661 0Z" fill="#231F20" transform="matrix(1.00166 0 0 -1 947.715 98.8744)"/><path d="M74.8767 45.6092 76.2436 45.6092 76.2436 44.1373 74.8767 44.1373ZM76.2587 54.3206 76.2587 46.8109 72.5937 46.8109 72.5937 48.0874 74.8317 48.0874 74.8317 54.3206Z" fill="#231F20" transform="matrix(1.00166 0 0 -1 875 146.962)"/><path d="M87.027 55.7774 88.2888 55.7774 88.2888 54.3203 87.027 54.3203ZM85.0145 55.7774 86.2911 55.7774 86.2911 54.3203 85.0145 54.3203ZM91.413 54.3206 91.413 46.8109 85.54 46.8109C84.6187 46.8109 83.8679 46.886 83.2875 47.0361 82.7065 47.1864 82.2683 47.449 81.9729 47.8245 81.6778 48.2 81.5301 48.7233 81.5301 49.3942 81.5301 49.8147 81.5774 50.3304 81.6726 50.9412 81.7678 51.5518 81.8754 52.1325 81.9956 52.6833L83.1221 52.6232 82.9869 51.5118C82.8667 50.6708 82.8067 50.075 82.8067 49.7244 82.8067 49.1438 82.9994 48.7256 83.385 48.4705 83.7704 48.2151 84.4637 48.0874 85.4649 48.0874L89.9861 48.0874 89.9861 54.3206Z" fill="#231F20" transform="matrix(1.00166 0 0 -1 875 146.962)"/><path d="M0 0 0-1.27658-2.85351-1.27658-2.85351 9.4172-1.42661 9.4172-1.42661 0Z" fill="#231F20" transform="matrix(1.00166 0 0 -1 971.89 98.8744)"/><path d="M98.9974 57.1892 100.364 57.1892 100.364 55.7173 98.9974 55.7173ZM102.632 48.0874 102.632 46.8109 96.7295 46.8109 96.7295 48.0874 98.9675 48.0874 98.9675 54.3206 100.394 54.3206 100.394 48.0874Z" fill="#231F20" transform="matrix(1.00166 0 0 -1 875 146.962)"/><path d="M104.9 45.6092 106.267 45.6092 106.267 44.1373 104.9 44.1373ZM108.535 48.0874 108.535 46.8109 102.632 46.8109 102.632 48.0874 104.87 48.0874 104.87 54.3206 106.297 54.3206 106.297 48.0874Z" fill="#231F20" transform="matrix(1.00166 0 0 -1 875 146.962)"/><path d="M0 0 0-1.27658-5.07642-1.27658-5.07642 0-3.22903 0-3.22903 9.4172-1.80213 9.4172-1.80213 0Z" fill="#231F20" transform="matrix(1.00166 0 0 -1 988.8 98.8744)"/><path d="M0 0 0-10.6938-3.2743-10.6938-3.2743-9.4172-1.4269-9.4172-1.4269 0Z" fill="#231F20" transform="matrix(1.00166 0 0 -1 992.08 89.4572)"/><path d="M126.437 57.1741 127.699 57.1741 127.699 55.7173 126.437 55.7173ZM124.425 57.1741 125.701 57.1741 125.701 55.7173 124.425 55.7173ZM123.756 49.1237C123.912 48.7532 124.164 48.4879 124.515 48.3277 124.865 48.1675 125.346 48.0874 125.957 48.0874L127.804 48.0874 127.804 53.089C127.003 53.1491 126.367 53.179 125.897 53.179 125.306 53.179 124.838 53.0963 124.492 52.9311 124.147 52.766 123.899 52.5005 123.749 52.1351 123.599 51.7695 123.524 51.2764 123.524 50.6557 123.524 50.0048 123.601 49.494 123.756 49.1237M130.883 48.0874 130.883 46.8109 125.791 46.8109C124.87 46.8109 124.144 46.931 123.614 47.1713 123.083 47.4116 122.697 47.8071 122.457 48.3579 122.217 48.9084 122.097 49.6693 122.097 50.6409 122.097 51.5919 122.212 52.3455 122.442 52.9012 122.672 53.457 123.048 53.8572 123.569 54.1027 124.089 54.3479 124.805 54.4706 125.716 54.4706 126.157 54.4706 126.763 54.4506 127.534 54.4106 128.305 54.3705 128.865 54.3305 129.216 54.2904L129.216 48.0874Z" fill="#231F20" transform="matrix(1.00166 0 0 -1 875 146.962)"/><path d="M134.187 45.6092 135.449 45.6092 135.449 44.1675 134.187 44.1675ZM132.174 45.6092 133.451 45.6092 133.451 44.1675 132.174 44.1675ZM136.785 48.0874 136.785 46.8109 130.883 46.8109 130.883 48.0874 133.121 48.0874 133.121 54.3206 134.548 54.3206 134.548 48.0874Z" fill="#231F20" transform="matrix(1.00166 0 0 -1 875 146.962)"/><path d="M0 0C0.0449806-0.445743 0.0922828-0.803557 0.142487-1.07373L3.83757-1.07373 3.83757 1.43445C3.83757 2.35553 3.64459 3.01892 3.25921 3.42433 2.87353 3.83002 2.26035 4.03258 1.41936 4.03258 0.988702 4.03258 0.568206 3.9876 0.157577 3.89764 0.00754513 2.97626-0.0673258 2.12541-0.0673258 1.34419-0.0673258 0.893808-0.0449806 0.445453 0 0M6.93165-1.07373 6.93165-2.3506 6.34575-2.3506C6.16553-2.3506 5.97516-2.29285 5.77493-2.17764 5.57469-2.06272 5.40435-1.91501 5.26447-1.7348L5.26447-2.3506-3.70234-2.3506-3.70234-1.07373-1.26903-1.07373C-1.40949-0.253052-1.47943 0.553116-1.47943 1.34419-1.47943 1.97508-1.43416 2.61352-1.34419 3.25921-1.25394 3.90519-1.15441 4.44321-1.04384 4.87387-0.773376 4.98385-0.400763 5.08426 0.0751611 5.17422 0.550504 5.26447 1.06386 5.30945 1.61437 5.30945 2.91619 5.30945 3.85005 5.00387 4.41564 4.3933 4.98124 3.78243 5.26447 2.78619 5.26447 1.40427L5.26447-0.457931C5.37446-0.638144 5.52188-0.786145 5.70731-0.901063 5.89275-1.01627 6.10546-1.07373 6.34575-1.07373Z" fill="#231F20" transform="matrix(1.00166 0 0 -1 1015.72 97.8006)"/><path d="M152.826 57.1741 154.088 57.1741 154.088 55.7173 152.826 55.7173ZM150.814 57.1741 152.09 57.1741 152.09 55.7173 150.814 55.7173ZM150.588 48.9058C150.678 48.5703 150.793 48.2978 150.934 48.0874L153.952 48.0874 153.952 52.9987C153.332 53.0487 152.896 53.0739 152.646 53.0739 152.045 53.0739 151.589 52.9886 151.279 52.8185 150.969 52.6482 150.753 52.3728 150.633 51.9926 150.513 51.6119 150.453 51.0762 150.453 50.3855 150.453 49.7343 150.498 49.2413 150.588 48.9058M155.379 54.1404 155.379 46.8109 147.419 46.8109 147.419 48.0874 149.372 48.0874C149.141 48.6583 149.026 49.4592 149.026 50.4906 149.026 51.4819 149.146 52.25 149.387 52.7959 149.627 53.3418 150.01 53.7298 150.536 53.9599 151.061 54.1903 151.795 54.3055 152.736 54.3055 153.517 54.3055 154.223 54.2704 154.854 54.2005Z" fill="#231F20" transform="matrix(1.00166 0 0 -1 875 146.962)"/><path d="M0 0-2.07288 0-2.07288-0.0902514C-2.07288-1.27135-2.27805-2.17532-2.68839-2.80099-3.09931-3.42694-3.71975-3.73977-4.55088-3.73977-4.78129-3.73977-5.03144-3.72468-5.30191-3.69479L-5.66233-3.66461-5.66233-2.40312C-5.3318-2.43301-5.06133-2.44811-4.85123-2.44811-4.40055-2.44811-4.06044-2.26789-3.82973-1.90747-3.59961-1.54704-3.4844-1.04123-3.4844-0.390606L-3.4844 7.49464-2.07288 7.49464-2.07288 1.27658 0 1.27658Z" fill="#231F20" transform="matrix(1.00166 0 0 -1 1037.77 100.151)"/><path d="M0 0 0-10.6938-3.2743-10.6938-3.2743-9.4172-1.4269-9.4172-1.4269 0Z" fill="#231F20" transform="matrix(1.00166 0 0 -1 1041.05 89.4572)"/><path d="M168.386 57.5046 169.813 57.5046 169.813 46.8109 168.386 46.8109Z" fill="#231F20" transform="matrix(1.00166 0 0 -1 875 146.962)"/><path d="M179.41 57.1741 180.671 57.1741 180.671 55.7173 179.41 55.7173ZM177.397 57.1741 178.673 57.1741 178.673 55.7173 177.397 55.7173ZM176.729 49.1237C176.884 48.7532 177.136 48.4879 177.487 48.3277 177.838 48.1675 178.318 48.0874 178.929 48.0874L180.776 48.0874 180.776 53.089C179.975 53.1491 179.34 53.179 178.869 53.179 178.278 53.179 177.81 53.0963 177.465 52.9311 177.119 52.766 176.872 52.5005 176.721 52.1351 176.571 51.7695 176.496 51.2764 176.496 50.6557 176.496 50.0048 176.574 49.494 176.729 49.1237M183.855 48.0874 183.855 46.8109 178.764 46.8109C177.843 46.8109 177.117 46.931 176.586 47.1713 176.055 47.4116 175.67 47.8071 175.43 48.3579 175.189 48.9084 175.069 49.6693 175.069 50.6409 175.069 51.5919 175.184 52.3455 175.414 52.9012 175.645 53.457 176.02 53.8572 176.541 54.1027 177.061 54.3479 177.778 54.4706 178.689 54.4706 179.129 54.4706 179.735 54.4506 180.506 54.4106 181.277 54.3705 181.838 54.3305 182.188 54.2904L182.188 48.0874Z" fill="#231F20" transform="matrix(1.00166 0 0 -1 875 146.962)"/><path d="M187.16 45.6092 188.421 45.6092 188.421 44.1675 187.16 44.1675ZM185.147 45.6092 186.424 45.6092 186.424 44.1675 185.147 44.1675ZM189.758 48.0874 189.758 46.8109 183.855 46.8109 183.855 48.0874 186.093 48.0874 186.093 54.3206 187.52 54.3206 187.52 48.0874Z" fill="#231F20" transform="matrix(1.00166 0 0 -1 875 146.962)"/><path d="M192.026 57.1892 193.393 57.1892 193.393 55.7173 192.026 55.7173ZM195.66 48.0874 195.66 46.8109 189.758 46.8109 189.758 48.0874 191.996 48.0874 191.996 54.3206 193.423 54.3206 193.423 48.0874Z" fill="#231F20" transform="matrix(1.00166 0 0 -1 875 146.962)"/><path d="M200.947 57.1741 202.209 57.1741 202.209 55.7173 200.947 55.7173ZM198.935 57.1741 200.211 57.1741 200.211 55.7173 198.935 55.7173ZM198.83 48.9058C198.92 48.5703 199.034 48.2978 199.175 48.0874L202.194 48.0874 202.194 52.9987C201.573 53.0487 201.137 53.0739 200.887 53.0739 200.286 53.0739 199.83 52.9886 199.52 52.8185 199.21 52.6482 198.995 52.3728 198.875 51.9926 198.754 51.6119 198.694 51.0762 198.694 50.3855 198.694 49.7343 198.739 49.2413 198.83 48.9058M204.988 48.0874 204.988 46.8109 195.66 46.8109 195.66 48.0874 197.613 48.0874C197.383 48.6583 197.267 49.4592 197.267 50.4906 197.267 51.4819 197.388 52.25 197.628 52.7959 197.868 53.3418 198.251 53.7298 198.777 53.9599 199.303 54.1903 200.036 54.3055 200.977 54.3055 201.758 54.3055 202.464 54.2704 203.095 54.2005L203.621 54.1404 203.621 48.0874Z" fill="#231F20" transform="matrix(1.00166 0 0 -1 875 146.962)"/><path d="M208.307 57.1741 209.568 57.1741 209.568 55.7173 208.307 55.7173ZM206.294 57.1741 207.571 57.1741 207.571 55.7173 206.294 55.7173ZM210.89 48.0874 210.89 46.8109 204.987 46.8109 204.987 48.0874 207.225 48.0874 207.225 54.3206 208.652 54.3206 208.652 48.0874Z" fill="#231F20" transform="matrix(1.00166 0 0 -1 875 146.962)"/><path d="M0 0 0-10.6938-3.2743-10.6938-3.2743-9.4172-1.4269-9.4172-1.4269 0Z" fill="#231F20" transform="matrix(1.00166 0 0 -1 1089.52 89.4572)"/><path d="M216.777 57.5046 218.204 57.5046 218.204 46.8109 216.777 46.8109Z" fill="#231F20" transform="matrix(1.00166 0 0 -1 875 146.962)"/><path d="M227.801 57.1741 229.063 57.1741 229.063 55.7173 227.801 55.7173ZM225.788 57.1741 227.065 57.1741 227.065 55.7173 225.788 55.7173ZM225.12 49.1237C225.275 48.7532 225.528 48.4879 225.879 48.3277 226.229 48.1675 226.709 48.0874 227.32 48.0874L229.168 48.0874 229.168 53.089C228.366 53.1491 227.731 53.179 227.26 53.179 226.669 53.179 226.201 53.0963 225.856 52.9311 225.51 52.766 225.263 52.5005 225.112 52.1351 224.962 51.7695 224.887 51.2764 224.887 50.6557 224.887 50.0048 224.965 49.494 225.12 49.1237M232.247 48.0874 232.247 46.8109 227.155 46.8109C226.234 46.8109 225.508 46.931 224.977 47.1713 224.446 47.4116 224.061 47.8071 223.821 48.3579 223.581 48.9084 223.46 49.6693 223.46 50.6409 223.46 51.5919 223.575 52.3455 223.806 52.9012 224.036 53.457 224.411 53.8572 224.932 54.1027 225.453 54.3479 226.169 54.4706 227.08 54.4706 227.521 54.4706 228.126 54.4506 228.897 54.4106 229.668 54.3705 230.229 54.3305 230.58 54.2904L230.58 48.0874Z" fill="#231F20" transform="matrix(1.00166 0 0 -1 875 146.962)"/><path d="M235.551 45.6092 236.813 45.6092 236.813 44.1675 235.551 44.1675ZM233.538 45.6092 234.815 45.6092 234.815 44.1675 233.538 44.1675ZM238.149 48.0874 238.149 46.8109 232.247 46.8109 232.247 48.0874 234.485 48.0874 234.485 54.3206 235.912 54.3206 235.912 48.0874Z" fill="#231F20" transform="matrix(1.00166 0 0 -1 875 146.962)"/><path d="M0 0 0-1.27658-5.07642-1.27658-5.07642 0-3.22903 0-3.22903 9.4172-1.80213 9.4172-1.80213 0Z" fill="#231F20" transform="matrix(1.00166 0 0 -1 1118.63 98.8744)"/><path d="M0 0 0-1.27658-10.2434-1.27658-10.2434 0-3.51458 0-3.51458 2.08768C-3.51458 2.64834-3.62979 3.13384-3.86021 3.54447-4.09062 3.95481-4.44089 4.1652-4.91159 4.17536L-8.96652 4.17536-9.82289 5.31671-8.9967 6.92382C-8.80662 7.29411-8.53354 7.72738-8.17834 8.22303-7.82285 8.71869-7.46997 9.17691-7.11912 9.59741L-6.09821 9.0115C-6.76885 8.01032-7.29933 7.13421-7.68994 6.38318L-8.1856 5.45194-4.74618 5.45194C-3.79491 5.45194-3.11643 5.11647-2.71102 4.44553-2.30562 3.7746-2.10277 2.98352-2.10277 2.07259L-2.10277 0Z" fill="#231F20" transform="matrix(1.00166 0 0 -1 1128.89 98.8744)"/><path d="M0 0 0-10.6938-3.2743-10.6938-3.2743-9.4172-1.4269-9.4172-1.4269 0Z" fill="#231F20" transform="matrix(1.00166 0 0 -1 1132.17 89.4572)"/><path d="M259.356 57.5046 260.783 57.5046 260.783 46.8109 259.356 46.8109Z" fill="#231F20" transform="matrix(1.00166 0 0 -1 875 146.962)"/><path d="M0 0-2.8628 0-2.8628 1.19852 4.18842 1.19852 4.18842 0 1.35377 0 1.35377-8.50365 0-8.50365Z" fill="#231F20" transform="matrix(1.00166 0 0 -1 908.809 111.293)"/><path d="M0 0 1.3114 0 1.3114-3.37035C1.71536-3.1823 2.08217-3.04591 2.41154-2.96146 2.74004-2.87673 3.0787-2.83436 3.42665-2.83436 4.02823-2.83436 4.49835-2.94986 4.83672-3.17998 5.17538-3.4104 5.41508-3.7746 5.55612-4.27287 5.69715-4.77113 5.76767-5.44323 5.76767-6.28945L5.76767-10.0405 4.45598-10.0405 4.45598-6.3176C4.45598-5.70673 4.41855-5.24125 4.34338-4.92146 4.26793-4.60195 4.12922-4.37153 3.92724-4.2305 3.72497-4.08946 3.43129-4.01894 3.04591-4.01894 2.56651-4.01894 2.06795-4.10861 1.5511-4.2868L1.3114-4.37153 1.3114-10.0405 0-10.0405Z" fill="#231F20" transform="matrix(1.00166 0 0 -1 916.324 109.755)"/><path d="M0 0C0 0.761478-0.119852 1.30212-0.359555 1.62162-0.599258 1.94113-1.00118 2.10132-1.56532 2.10132-2.15762 2.10132-2.5903 1.93417-2.86251 1.60073-3.13558 1.26671-3.27662 0.733329-3.28561 0ZM-3.90635-3.32102C-4.36689-2.76181-4.59731-1.87555-4.59731-0.662811-4.59731 0.643948-4.35035 1.61466-3.85701 2.24932-3.36339 2.88398-2.59959 3.20117-1.56532 3.20117 0.35259 3.20117 1.31169 2.11032 1.31169-0.070518L1.22695-1.02933-3.27139-1.02933C-3.2624-1.53718-3.19652-1.92981-3.07435-2.20695-2.95218-2.48438-2.75455-2.68433-2.48206-2.80621-2.20927-2.92867-1.82389-2.98961-1.32533-2.98961-1.03426-2.98961-0.70518-2.98265-0.33837-2.96843 0.0284393-2.9545 0.356943-2.93302 0.648591-2.90488L1.04355-2.8628 1.0717-3.87791C-0.0281491-4.06596-0.916443-4.15998-1.59347-4.15998-2.67475-4.15998-3.4458-3.88052-3.90635-3.32102" fill="#231F20" transform="matrix(1.00166 0 0 -1 930.421 115.791)"/><path d="M0 0-2.86251 0-2.86251 1.19852 4.18842 1.19852 4.18842 0 1.35377 0 1.35377-8.50365 0-8.50365Z" fill="#231F20" transform="matrix(1.00166 0 0 -1 942.808 111.293)"/><path d="M0 0C0 0.761478-0.119852 1.30212-0.359555 1.62162-0.599258 1.94113-1.00118 2.10132-1.56532 2.10132-2.15762 2.10132-2.5903 1.93417-2.86251 1.60073-3.13558 1.26671-3.27662 0.733329-3.28561 0ZM-3.90635-3.32102C-4.36689-2.76181-4.59731-1.87555-4.59731-0.662811-4.59731 0.643948-4.35035 1.61466-3.85701 2.24932-3.36339 2.88398-2.59959 3.20117-1.56532 3.20117 0.35259 3.20117 1.31169 2.11032 1.31169-0.070518L1.22695-1.02933-3.27139-1.02933C-3.2624-1.53718-3.19652-1.92981-3.07435-2.20695-2.95218-2.48438-2.75455-2.68433-2.48206-2.80621-2.20927-2.92867-1.82389-2.98961-1.32533-2.98961-1.03426-2.98961-0.70518-2.98265-0.33837-2.96843 0.0284393-2.9545 0.356943-2.93302 0.648591-2.90488L1.04355-2.8628 1.0717-3.87791C-0.0281491-4.06596-0.916443-4.15998-1.59347-4.15998-2.67475-4.15998-3.4458-3.88052-3.90635-3.32102" fill="#231F20" transform="matrix(1.00166 0 0 -1 954.603 115.791)"/><path d="M0 0C-0.418465 0.253923-0.719399 0.648591-0.902514 1.18459-1.08592 1.72058-1.17762 2.42547-1.17762 3.29983-1.17762 4.46556-0.973322 5.37039-0.564144 6.01463-0.155256 6.65829 0.585328 6.9807 1.65703 6.9807 1.92923 6.9807 2.22088 6.96416 2.53139 6.93107 2.84161 6.89828 3.2595 6.83009 3.7865 6.72678L3.74384 5.68323C2.94463 5.75839 2.38078 5.79611 2.0517 5.79611 1.55343 5.79611 1.16775 5.72066 0.895549 5.57034 0.622764 5.41973 0.432104 5.16609 0.32415 4.80886 0.216197 4.45134 0.16222 3.94378 0.16222 3.2859 0.16222 2.64631 0.216197 2.15268 0.32415 1.80503 0.432104 1.45708 0.622764 1.20316 0.895549 1.04355 1.16775 0.883651 1.56736 0.803847 2.09406 0.803847L3.75806 0.930953 3.80042-0.141036C2.86019-0.300644 2.15036-0.380739 1.67096-0.380739 0.975063-0.380739 0.418174-0.253923 0 0" fill="#231F20" transform="matrix(1.00166 0 0 -1 960.514 119.57)"/><path d="M0 0 1.3114 0 1.3114-3.37035C1.71536-3.1823 2.08217-3.04591 2.41154-2.96146 2.74004-2.87673 3.0787-2.83436 3.42665-2.83436 4.02823-2.83436 4.49835-2.94986 4.83672-3.17998 5.17538-3.4104 5.41508-3.7746 5.55612-4.27287 5.69715-4.77113 5.76767-5.44323 5.76767-6.28945L5.76767-10.0405 4.45598-10.0405 4.45598-6.3176C4.45598-5.70673 4.41855-5.24125 4.34338-4.92146 4.26793-4.60195 4.12922-4.37153 3.92724-4.2305 3.72497-4.08946 3.43129-4.01894 3.04591-4.01894 2.56651-4.01894 2.06795-4.10861 1.5511-4.2868L1.3114-4.37153 1.3114-10.0405 0-10.0405Z" fill="#231F20" transform="matrix(1.00166 0 0 -1 968.008 109.755)"/><path d="M0 0 1.29747 0 1.29747-0.465477C1.70114-0.239703 2.06795-0.0800945 2.39732 0.0139295 2.7264 0.107953 3.07406 0.155256 3.44058 0.155256 4.03287 0.155256 4.49835 0.0374355 4.83672-0.197334 5.17538-0.432684 5.41508-0.796882 5.55612-1.29022 5.69715-1.78384 5.76767-2.45391 5.76767-3.29983L5.76767-7.05093 4.45598-7.05093 4.45598-3.32798C4.45598-2.73569 4.42087-2.27747 4.35035-1.95303 4.27983-1.62888 4.14808-1.39382 3.95539-1.24814 3.7627-1.10246 3.48295-1.02933 3.11643-1.02933 2.61787-1.02933 2.09639-1.13757 1.5511-1.35377L1.3114-1.46666 1.3114-7.05093 0-7.05093Z" fill="#231F20" transform="matrix(1.00166 0 0 -1 977.825 112.745)"/><path d="M112.455 34.2169 113.766 34.2169 113.766 27.166 112.455 27.166ZM112.455 37.0231 113.752 37.0231 113.752 35.5988 112.455 35.5988Z" fill="#231F20" transform="matrix(1.00166 0 0 -1 875 146.962)"/><path d="M0 0C-0.418465 0.253923-0.719399 0.648591-0.902514 1.18459-1.08592 1.72058-1.17762 2.42547-1.17762 3.29983-1.17762 4.46556-0.973322 5.37039-0.564144 6.01463-0.155256 6.65829 0.585328 6.9807 1.65703 6.9807 1.92923 6.9807 2.22088 6.96416 2.53139 6.93107 2.84161 6.89828 3.2595 6.83009 3.7865 6.72678L3.74384 5.68323C2.94463 5.75839 2.38078 5.79611 2.0517 5.79611 1.55343 5.79611 1.16775 5.72066 0.895549 5.57034 0.622764 5.41973 0.432104 5.16609 0.32415 4.80886 0.216197 4.45134 0.16222 3.94378 0.16222 3.2859 0.16222 2.64631 0.216197 2.15268 0.32415 1.80503 0.432104 1.45708 0.622764 1.20316 0.895549 1.04355 1.16775 0.883651 1.56736 0.803847 2.09406 0.803847L3.75806 0.930953 3.80042-0.141036C2.86019-0.300644 2.15036-0.380739 1.67096-0.380739 0.975063-0.380739 0.418174-0.253923 0 0" fill="#231F20" transform="matrix(1.00166 0 0 -1 993.921 119.57)"/><path d="M0 0 0.296292 0.0986671 0.296292 2.17155-1.53718 2.00236C-1.90398 1.96493-2.17416 1.85436-2.34799 1.67096-2.52182 1.48755-2.60887 1.21738-2.60887 0.860145-2.60887 0.107953-2.29372-0.267852-1.66399-0.267852-1.09056-0.267852-0.535995-0.178762 0 0M-3.42694-0.803847C-3.7746-0.428041-3.94843 0.112887-3.94843 0.817776-3.94843 1.51338-3.76995 2.02355-3.41272 2.34799-3.05549 2.67214-2.4867 2.87179-1.70636 2.94724L0.296292 3.13065 0.296292 3.68057C0.296292 4.0941 0.206911 4.39272 0.0284393 4.57612-0.150612 4.75924-0.413821 4.85094-0.761478 4.85094-1.5514 4.85094-2.4632 4.79464-3.49717 4.68175L-3.53954 5.64086C-2.54329 5.87563-1.61698 5.99345-0.761478 5.99345 0.0658748 5.99345 0.667454 5.80772 1.04355 5.43627 1.41965 5.06481 1.60769 4.47978 1.60769 3.68057L1.60769 0.282072C1.62627 0.0937338 1.68982-0.0493336 1.79806-0.148001 1.90602-0.246958 2.07752-0.315154 2.31287-0.35259L2.2705-1.36799C1.86626-1.36799 1.52296-1.3233 1.24088-1.23392 0.959102-1.14454 0.709823-1.00611 0.493626-0.817776-0.305578-1.18459-1.10478-1.36799-1.90398-1.36799-2.57115-1.36799-3.07899-1.17994-3.42694-0.803847" fill="#231F20" transform="matrix(1.00166 0 0 -1 1004.92 118.583)"/><path d="M135.554 37.2065 136.865 37.2065 136.865 27.166 135.554 27.166Z" fill="#231F20" transform="matrix(1.00166 0 0 -1 875 146.962)"/><path d="M0 0C0.366809 0.625085 0.550214 1.5958 0.550214 2.91213 0.550214 3.74877 0.472441 4.42087 0.317476 4.92871 0.16222 5.43627-0.0870592 5.80772-0.430073 6.04278-0.773376 6.27755-1.23653 6.39537-1.81925 6.39537L-3.86398 6.39537-3.86398-0.937628-1.81925-0.937628C-0.973322-0.937628-0.366809-0.625375 0 0M0.521775 6.98766C1.06706 6.5927 1.43851 6.06396 1.63584 5.40115 1.83318 4.73834 1.93184 3.91795 1.93184 2.94028 1.93184 1.73683 1.80503 0.766121 1.5514 0.0281491 1.29747-0.709823 0.897871-1.25278 0.35259-1.60073-0.192691-1.94839-0.916734-2.12221-1.81925-2.12221L-5.21775-2.12221-5.21775 7.57996-1.81925 7.57996C-0.803847 7.57996-0.023506 7.38233 0.521775 6.98766" fill="#231F20" transform="matrix(1.00166 0 0 -1 1026.97 117.674)"/><path d="M157.539 34.2169 158.85 34.2169 158.85 27.166 157.539 27.166ZM157.539 37.0231 158.836 37.0231 158.836 35.5988 157.539 35.5988Z" fill="#231F20" transform="matrix(1.00166 0 0 -1 875 146.962)"/><path d="M0 0C0.22084 0.216197 0.331696 0.57343 0.331696 1.0717 0.331696 1.56039 0.218519 1.91298-0.00696474 2.12918-0.232738 2.34567-0.594614 2.45362-1.09288 2.45362-1.60073 2.45362-1.96957 2.34305-2.19999 2.12221-2.4304 1.90137-2.54532 1.54646-2.54532 1.05777-2.54532 0.568497-2.4304 0.216197-2.19999 0-1.96957-0.216487-1.60073-0.324441-1.09288-0.324441-0.585328-0.324441-0.22113-0.216487 0 0M0.634662-5.61967C0.921377-5.43627 1.06473-5.12372 1.06473-4.68204 1.06473-4.41855 1.01047-4.22353 0.902514-4.09672 0.79427-3.9699 0.63234-3.88516 0.416143-3.84279 0.199656-3.80042-0.119852-3.7746-0.542959-3.76531L-1.98118-3.68057C-2.2351-3.8782-2.40922-4.05667-2.50295-4.21657-2.59698-4.37647-2.64399-4.56916-2.64399-4.79464-2.64399-5.19889-2.50789-5.48328-2.2351-5.64782-1.9626-5.81236-1.50177-5.89449-0.85289-5.89449-0.148001-5.89449 0.347656-5.80308 0.634662-5.61967M-3.22932-6.52219C-3.70437-6.21661-3.94146-5.70644-3.94146-4.99227-3.94146-4.58802-3.86369-4.2659-3.70872-4.0262-3.55376-3.7865-3.26965-3.50674-2.85554-3.18695-3.00586-3.08364-3.11643-2.94724-3.18695-2.77806-3.25776-2.60887-3.29287-2.4304-3.29287-2.24236-3.29287-2.11061-3.2624-1.97218-3.20117-1.82621-3.13994-1.68053-3.00151-1.42429-2.78531-1.05777-3.49978-0.681964-3.85672 0.0185726-3.85672 1.04355-3.85672 2.67939-2.94028 3.49717-1.10681 3.49717-0.674709 3.49717-0.195303 3.43594 0.331696 3.31376L2.4748 3.37035 2.4748 2.28443 1.2197 2.3268C1.37031 2.15762 1.47856 1.97189 1.54414 1.76991 1.61002 1.56736 1.64281 1.30647 1.64281 0.986961 1.64281 0.150322 1.41965-0.448935 0.973322-0.810811 0.526418-1.17298-0.171797-1.35377-1.12103-1.35377-1.4031-1.35377-1.63352-1.3352-1.81199-1.29747-1.9626-1.655-2.03748-1.91327-2.03748-2.07317-2.03748-2.29865-1.94606-2.44462-1.76266-2.51021-1.57925-2.57608-1.29515-2.60887-0.909479-2.60887L-0.416143-2.60887C0.242025-2.61845 0.768443-2.67011 1.1634-2.76413 1.55836-2.85815 1.86365-3.04852 2.08013-3.33524 2.29633-3.62195 2.40429-4.03781 2.40429-4.58309 2.40429-5.41044 2.13875-6.01666 1.60769-6.40233 1.07634-6.78772 0.218519-6.9807-0.965777-6.9807-2.00033-6.9807-2.75455-6.82747-3.22932-6.52219" fill="#231F20" transform="matrix(1.00166 0 0 -1 1041.83 116.101)"/><path d="M172.43 34.2169 173.741 34.2169 173.741 27.166 172.43 27.166ZM172.43 37.0231 173.728 37.0231 173.728 35.5988 172.43 35.5988Z" fill="#231F20" transform="matrix(1.00166 0 0 -1 875 146.962)"/><path d="M0 0C-0.277138 0.159899-0.477375 0.427751-0.598967 0.803847-0.721431 1.17965-0.782372 1.70143-0.782372 2.36917L-0.782372 5.83819-1.72725 5.83819-1.72725 6.96648-0.782372 6.96648-0.782372 9.0678 0.52903 9.0678 0.52903 6.96648 2.60191 6.96648 2.60191 5.83819 0.52903 5.83819 0.52903 2.60887C0.52903 2.1669 0.545281 1.8355 0.578363 1.61466 0.611156 1.39382 0.688638 1.22434 0.811102 1.1071 0.932985 0.989283 1.13061 0.930953 1.40339 0.930953L2.60191 1.00118 2.68665-0.070518C2.02848-0.183405 1.52063-0.239703 1.16369-0.239703 0.665132-0.239703 0.277429-0.159609 0 0" fill="#231F20" transform="matrix(1.00166 0 0 -1 1054.25 119.711)"/><path d="M0 0 0.296292 0.0986671 0.296292 2.17155-1.53718 2.00236C-1.90398 1.96493-2.17416 1.85436-2.34799 1.67096-2.52182 1.48755-2.60887 1.21738-2.60887 0.860145-2.60887 0.107953-2.29372-0.267852-1.66399-0.267852-1.09056-0.267852-0.535995-0.178762 0 0M-3.42694-0.803847C-3.7746-0.428041-3.94843 0.112887-3.94843 0.817776-3.94843 1.51338-3.76995 2.02355-3.41272 2.34799-3.05549 2.67214-2.4867 2.87179-1.70636 2.94724L0.296292 3.13065 0.296292 3.68057C0.296292 4.0941 0.206911 4.39272 0.0284393 4.57612-0.150612 4.75924-0.413821 4.85094-0.761478 4.85094-1.5514 4.85094-2.4632 4.79464-3.49717 4.68175L-3.53954 5.64086C-2.54329 5.87563-1.61698 5.99345-0.761478 5.99345 0.0658748 5.99345 0.667454 5.80772 1.04355 5.43627 1.41965 5.06481 1.60769 4.47978 1.60769 3.68057L1.60769 0.282072C1.62627 0.0937338 1.68982-0.0493336 1.79806-0.148001 1.90602-0.246958 2.07752-0.315154 2.31287-0.35259L2.2705-1.36799C1.86626-1.36799 1.52296-1.3233 1.24088-1.23392 0.959102-1.14454 0.709823-1.00611 0.493626-0.817776-0.305578-1.18459-1.10478-1.36799-1.90398-1.36799-2.57115-1.36799-3.07899-1.17994-3.42694-0.803847" fill="#231F20" transform="matrix(1.00166 0 0 -1 1063.81 118.583)"/><path d="M194.344 37.2065 195.656 37.2065 195.656 27.166 194.344 27.166Z" fill="#231F20" transform="matrix(1.00166 0 0 -1 875 146.962)"/><path d="M0 0C-0.535995 0.371453-0.904835 0.9118-1.10681 1.62162-1.30937 2.33145-1.41007 3.26936-1.41007 4.43509-1.41007 5.63854-1.30676 6.59735-1.09985 7.31181-0.893228 8.02628-0.52874 8.56227-0.00696474 8.91951 0.51452 9.27674 1.2551 9.4555 2.21392 9.4555 2.99426 9.4555 3.89677 9.34261 4.92146 9.11713L4.87909 8.00306C3.98586 8.16267 3.18695 8.24277 2.48206 8.24277 1.77688 8.24277 1.24553 8.11798 0.888584 7.86899 0.531061 7.61971 0.291358 7.21779 0.169185 6.66322 0.047012 6.10836-0.00928632 5.30452 0 4.25168 0 3.33988 0.0586199 2.63702 0.17615 2.14369 0.29368 1.65006 0.533383 1.27861 0.895549 1.02933 1.25713 0.780341 1.80967 0.655846 2.55258 0.655846 3.17302 0.655846 3.94843 0.73565 4.87909 0.895549L4.92146-0.246668C3.88748-0.453288 3.01776-0.556889 2.31287-0.556889 1.30676-0.556889 0.535995-0.371453 0 0" fill="#231F20" transform="matrix(1.00166 0 0 -1 1081.66 119.394)"/><path d="M0 0C0.248699 0.159899 0.425139 0.418174 0.52874 0.775698 0.63234 1.13293 0.683705 1.6312 0.683705 2.2705 0.683705 2.93796 0.629728 3.45509 0.521775 3.82161 0.413531 4.18842 0.23506 4.44931-0.0142197 4.60427-0.263209 4.75953-0.608834 4.83701-1.05051 4.83701-1.49278 4.83701-1.84043 4.75953-2.09435 4.60427-2.34799 4.44931-2.52907 4.18581-2.63702 3.81464-2.74527 3.44319-2.79924 2.92838-2.79924 2.2705-2.79924 1.64049-2.74788 1.14454-2.64399 0.782662-2.54097 0.420786-2.36221 0.159899-2.10828 0-1.85465-0.159899-1.50206-0.239703-1.05051-0.239703-0.599258-0.239703-0.24928-0.159899 0 0M-3.41969-0.500591C-3.89938 0.086769-4.13908 1.01047-4.13908 2.2705-4.13908 3.5584-3.89474 4.49864-3.40547 5.09093-2.91706 5.68323-2.13208 5.97923-1.05051 5.97923 0.0400472 5.97923 0.827353 5.6809 1.31169 5.08397 1.79545 4.48674 2.03748 3.54882 2.03748 2.2705 2.03748 1.02004 1.79777 0.0986671 1.31837-0.493626 0.839251-1.08592 0.0493336-1.38192-1.05051-1.38192-2.15065-1.38192-2.94028-1.08824-3.41969-0.500591" fill="#231F20" transform="matrix(1.00166 0 0 -1 1094.11 118.569)"/><path d="M224.635 37.2065 225.947 37.2065 225.947 27.166 224.635 27.166Z" fill="#231F20" transform="matrix(1.00166 0 0 -1 875 146.962)"/><path d="M230.219 37.2065 231.531 37.2065 231.531 27.166 230.219 27.166Z" fill="#231F20" transform="matrix(1.00166 0 0 -1 875 146.962)"/><path d="M0 0C0 0.761478-0.119852 1.30212-0.359555 1.62162-0.599258 1.94113-1.00118 2.10132-1.56532 2.10132-2.15762 2.10132-2.5903 1.93417-2.86251 1.60073-3.13558 1.26671-3.27662 0.733329-3.28561 0ZM-3.90635-3.32102C-4.36689-2.76181-4.59731-1.87555-4.59731-0.662811-4.59731 0.643948-4.35035 1.61466-3.85701 2.24932-3.36339 2.88398-2.59959 3.20117-1.56532 3.20117 0.35259 3.20117 1.31169 2.11032 1.31169-0.070518L1.22695-1.02933-3.27139-1.02933C-3.2624-1.53718-3.19652-1.92981-3.07435-2.20695-2.95218-2.48438-2.75455-2.68433-2.48206-2.80621-2.20927-2.92867-1.82389-2.98961-1.32533-2.98961-1.03426-2.98961-0.70518-2.98265-0.33837-2.96843 0.0284393-2.9545 0.356943-2.93302 0.648591-2.90488L1.04355-2.8628 1.0717-3.87791C-0.0281491-4.06596-0.916443-4.15998-1.59347-4.15998-2.67475-4.15998-3.4458-3.88052-3.90635-3.32102" fill="#231F20" transform="matrix(1.00166 0 0 -1 1115.39 115.791)"/><path d="M0 0C0.22084 0.216197 0.331696 0.57343 0.331696 1.0717 0.331696 1.56039 0.218519 1.91298-0.00696474 2.12918-0.232738 2.34567-0.594614 2.45362-1.09288 2.45362-1.60073 2.45362-1.96957 2.34305-2.19999 2.12221-2.4304 1.90137-2.54532 1.54646-2.54532 1.05777-2.54532 0.568497-2.4304 0.216197-2.19999 0-1.96957-0.216487-1.60073-0.324441-1.09288-0.324441-0.585328-0.324441-0.22113-0.216487 0 0M0.634662-5.61967C0.921377-5.43627 1.06473-5.12372 1.06473-4.68204 1.06473-4.41855 1.01047-4.22353 0.902514-4.09672 0.79427-3.9699 0.63234-3.88516 0.416143-3.84279 0.199656-3.80042-0.119852-3.7746-0.542959-3.76531L-1.98118-3.68057C-2.2351-3.8782-2.40922-4.05667-2.50295-4.21657-2.59698-4.37647-2.64399-4.56916-2.64399-4.79464-2.64399-5.19889-2.50789-5.48328-2.2351-5.64782-1.9626-5.81236-1.50177-5.89449-0.85289-5.89449-0.148001-5.89449 0.347656-5.80308 0.634662-5.61967M-3.22932-6.52219C-3.70437-6.21661-3.94146-5.70644-3.94146-4.99227-3.94146-4.58802-3.86369-4.2659-3.70872-4.0262-3.55376-3.7865-3.26965-3.50674-2.85554-3.18695-3.00586-3.08364-3.11643-2.94724-3.18695-2.77806-3.25776-2.60887-3.29287-2.4304-3.29287-2.24236-3.29287-2.11061-3.2624-1.97218-3.20117-1.82621-3.13994-1.68053-3.00151-1.42429-2.78531-1.05777-3.49978-0.681964-3.85672 0.0185726-3.85672 1.04355-3.85672 2.67939-2.94028 3.49717-1.10681 3.49717-0.674709 3.49717-0.195303 3.43594 0.331696 3.31376L2.4748 3.37035 2.4748 2.28443 1.2197 2.3268C1.37031 2.15762 1.47856 1.97189 1.54414 1.76991 1.61002 1.56736 1.64281 1.30647 1.64281 0.986961 1.64281 0.150322 1.41965-0.448935 0.973322-0.810811 0.526418-1.17298-0.171797-1.35377-1.12103-1.35377-1.4031-1.35377-1.63352-1.3352-1.81199-1.29747-1.9626-1.655-2.03748-1.91327-2.03748-2.07317-2.03748-2.29865-1.94606-2.44462-1.76266-2.51021-1.57925-2.57608-1.29515-2.60887-0.909479-2.60887L-0.416143-2.60887C0.242025-2.61845 0.768443-2.67011 1.1634-2.76413 1.55836-2.85815 1.86365-3.04852 2.08013-3.33524 2.29633-3.62195 2.40429-4.03781 2.40429-4.58309 2.40429-5.41044 2.13875-6.01666 1.60769-6.40233 1.07634-6.78772 0.218519-6.9807-0.965777-6.9807-2.00033-6.9807-2.75455-6.82747-3.22932-6.52219" fill="#231F20" transform="matrix(1.00166 0 0 -1 1124.06 116.101)"/><path d="M0 0C0 0.761478-0.119852 1.30212-0.359555 1.62162-0.599258 1.94113-1.00118 2.10132-1.56532 2.10132-2.15762 2.10132-2.5903 1.93417-2.86251 1.60073-3.13558 1.26671-3.27662 0.733329-3.28561 0ZM-3.90635-3.32102C-4.36689-2.76181-4.59731-1.87555-4.59731-0.662811-4.59731 0.643948-4.35035 1.61466-3.85701 2.24932-3.36339 2.88398-2.59959 3.20117-1.56532 3.20117 0.35259 3.20117 1.31169 2.11032 1.31169-0.070518L1.22695-1.02933-3.27139-1.02933C-3.2624-1.53718-3.19652-1.92981-3.07435-2.20695-2.95218-2.48438-2.75455-2.68433-2.48206-2.80621-2.20927-2.92867-1.82389-2.98961-1.32533-2.98961-1.03426-2.98961-0.70518-2.98265-0.33837-2.96843 0.0284393-2.9545 0.356943-2.93302 0.648591-2.90488L1.04355-2.8628 1.0717-3.87791C-0.0281491-4.06596-0.916443-4.15998-1.59347-4.15998-2.67475-4.15998-3.4458-3.88052-3.90635-3.32102" fill="#231F20" transform="matrix(1.00166 0 0 -1 1134.22 115.791)"/></g></svg>